<svg width="375" height="1207" viewBox="0 0 375 1207" fill="none" xmlns="http://www.w3.org/2000/svg">
<rect width="375" height="1207" fill="#3E1F4B"/>
<path d="M233.535 241.369H230.535V242.569H233.535V249.904H234.885V235.504H233.535V241.369ZM222.66 237.529V238.759H231V237.529H222.66ZM229.575 239.899L228.21 239.809L227.82 245.584C227.13 245.644 226.41 245.689 225.675 245.734L225.285 239.809L223.92 239.899L224.385 245.794C223.695 245.809 223.02 245.824 222.36 245.824L222.51 247.054C225.765 247.054 229.53 246.709 232.11 246.154L232.005 244.969C231.15 245.164 230.175 245.314 229.125 245.434L229.575 239.899ZM239.085 235.954V237.154H249.435V235.954H239.085ZM249.375 240.604V239.434H247.185L247.455 237.784L246.09 237.694L245.85 239.434H242.64L242.4 237.694L241.035 237.784L241.305 239.434H239.16V240.604H249.375ZM237.135 242.989H251.385V241.774H237.135V242.989ZM248.73 247.474V244.129H239.475V245.254H247.38V246.394H239.76V249.829H249.63V248.689H241.095V247.474H248.73ZM267.837 241.519H265.482V236.104H264.177V249.379H265.482V242.704H267.837V249.889H269.157V235.504H267.837V241.519ZM262.482 246.979V237.679H256.857V246.979H262.482ZM261.192 238.894V245.764H258.147V238.894H261.192ZM282.432 243.874C279.777 244.849 275.997 245.419 273.837 245.419V237.379H272.457V246.679C276.012 246.679 279.867 246.064 282.432 245.044V249.904H283.782V235.504H282.432V243.874ZM297.432 241.294H294.207V242.494H297.432V249.904H298.782V235.504H297.432V241.294ZM287.097 237.679V238.909H292.557V238.954C291.897 241.579 289.467 244.519 286.257 246.229L287.067 247.339C288.657 246.409 290.157 245.209 291.372 243.754L294.597 247.084L295.422 246.049L292.122 242.749C293.157 241.264 293.877 239.569 294.147 237.679H287.097ZM313.782 249.904V235.504H312.462V249.904H313.782ZM306.282 244.009C308.502 244.009 310.032 242.719 310.032 240.559C310.032 238.414 308.502 237.124 306.282 237.124C304.062 237.124 302.532 238.414 302.532 240.559C302.532 242.719 304.062 244.009 306.282 244.009ZM306.282 242.824C304.887 242.824 303.882 242.044 303.882 240.559C303.882 239.089 304.887 238.309 306.282 238.309C307.677 238.309 308.682 239.089 308.682 240.559C308.682 242.044 307.677 242.824 306.282 242.824ZM301.257 247.624C305.667 247.624 308.967 247.339 311.832 246.694L311.652 245.524C308.802 246.169 305.607 246.379 301.107 246.379L301.257 247.624ZM201.51 264.004V265.204H212.01V264.004H201.51ZM207.435 270.829H211.935V269.644H209.61L210.015 266.224L208.65 266.104L208.32 269.644H205.17L204.84 266.104L203.475 266.224L203.88 269.644H201.585V270.829H206.085V273.949H199.635V275.194H213.885V273.949H207.435V270.829ZM227.055 271.579V270.394H218.43V268.294H226.29V267.139H218.43V265.114H226.605V263.929H217.11V271.579H227.055ZM228.885 275.194V273.949H214.635V275.194H228.885ZM231.585 262.954V264.154H241.935V262.954H231.585ZM237.435 267.604H241.875V266.434H239.685L239.955 264.784L238.59 264.694L238.35 266.434H235.14L234.9 264.694L233.535 264.784L233.805 266.434H231.66V267.604H236.085V268.924H229.635V270.139H243.885V268.924H237.435V267.604ZM241.23 274.474V271.129H231.975V272.254H239.88V273.394H232.26V276.829H242.13V275.689H233.595V274.474H241.23ZM256.035 271.789C253.455 272.554 250.155 272.974 247.245 272.974V269.734H252.87V264.529H245.685V265.759H251.55V268.549H245.895V274.189C250.035 274.189 253.515 273.724 256.035 272.944V276.904H257.385V262.504H256.035V271.789ZM267.435 270.859C270.165 270.664 271.785 269.269 271.785 267.289C271.785 265.159 269.895 263.704 266.76 263.704C263.64 263.704 261.735 265.159 261.735 267.289C261.735 269.269 263.37 270.664 266.085 270.859V273.949H259.635V275.194H273.885V273.949H267.435V270.859ZM263.595 268.654C263.28 268.264 263.115 267.814 263.115 267.289C263.115 266.779 263.265 266.314 263.595 265.939C264.15 265.279 265.245 264.904 266.76 264.904C268.275 264.904 269.34 265.294 269.925 265.939C270.255 266.314 270.405 266.779 270.405 267.289C270.405 267.814 270.24 268.264 269.925 268.654C269.37 269.314 268.275 269.689 266.76 269.689C265.245 269.689 264.15 269.314 263.595 268.654ZM290.532 267.844V262.504H289.212V272.329H290.532V269.044H293.082V267.844H290.532ZM280.677 262.909V264.004H286.017V262.909H280.677ZM278.892 264.739V265.819H287.472V264.739H278.892ZM288.282 270.274C286.947 270.514 285.552 270.679 283.917 270.784V269.914C285.522 269.779 286.482 269.164 286.482 268.174C286.482 267.064 285.282 266.419 283.302 266.419C281.337 266.419 280.137 267.064 280.137 268.174C280.137 269.149 281.052 269.764 282.597 269.899V270.844C281.397 270.889 280.092 270.904 278.607 270.904L278.742 272.089C282.867 272.089 285.867 271.864 288.432 271.384L288.282 270.274ZM281.382 268.159C281.382 267.649 282.132 267.409 283.302 267.409C284.487 267.409 285.237 267.649 285.237 268.159C285.237 268.669 284.487 268.909 283.302 268.909C282.132 268.909 281.382 268.669 281.382 268.159ZM289.152 274.219V276.934H290.532V273.004H281.082V274.219H289.152ZM306.282 273.304V262.504H304.932V273.304H306.282ZM298.107 270.709C300.282 270.709 301.782 269.479 301.782 267.259C301.782 265.054 300.282 263.824 298.107 263.824C295.932 263.824 294.432 265.054 294.432 267.259C294.432 269.479 295.932 270.709 298.107 270.709ZM298.107 269.539C296.757 269.539 295.782 268.804 295.782 267.259C295.782 265.714 296.757 264.994 298.107 264.994C299.457 264.994 300.432 265.714 300.432 267.259C300.432 268.804 299.457 269.539 298.107 269.539ZM306.882 276.679V275.449H298.632V271.879H297.282V276.679H306.882ZM320.532 268.744V262.504H319.212V276.904H320.532V269.944H323.007V268.744H320.532ZM310.437 263.554V264.754H316.197V263.554H310.437ZM317.607 267.724V266.494H308.682V267.724H317.607ZM313.302 268.999C311.307 268.999 309.987 270.229 309.987 271.879C309.987 273.529 311.307 274.759 313.302 274.759C315.297 274.759 316.602 273.529 316.602 271.879C316.602 270.229 315.297 268.999 313.302 268.999ZM313.302 273.559C312.042 273.559 311.337 272.929 311.337 271.879C311.337 270.844 312.042 270.199 313.302 270.199C314.562 270.199 315.267 270.844 315.267 271.879C315.267 272.929 314.562 273.559 313.302 273.559ZM336.282 276.904V262.504H334.932V276.904H336.282ZM324.957 274.519C328.722 272.824 331.812 269.389 332.337 264.754H324.852V265.999H330.732V266.044C330.102 268.819 327.837 271.744 324.057 273.364L324.957 274.519Z" fill="white"/>
<rect x="62.2861" y="207.361" width="75.1657" height="96.4878" stroke="white" stroke-width="2"/>
<path d="M72.4548 228.952L76.2454 233.775L80.5775 225.652" stroke="white" stroke-width="2"/>
<path d="M73.4702 255.351L76.787 260.174L80.5776 252.051" stroke="white" stroke-width="2"/>
<path d="M73.4702 242.152L76.787 246.975L80.5776 238.852" stroke="white" stroke-width="2"/>
<path d="M90.731 230.729H126.268" stroke="white" stroke-width="2"/>
<path d="M90.731 259.159H126.268" stroke="white" stroke-width="2"/>
<path d="M90.731 243.929H126.268" stroke="white" stroke-width="2"/>
<path d="M85.9666 277.367C85.9457 276.964 85.7016 277.04 85.4932 277.1C85.4699 277.108 85.4357 277.114 85.4124 277.122L85.1434 277.217C85.0099 277.376 84.9262 277.575 84.855 277.765C84.8023 277.902 84.7496 278.039 84.6891 278.153C84.6317 278.245 84.5743 278.337 84.52 278.407C84.3648 278.64 84.2221 278.865 84.1415 279.042C84.098 279.114 84.053 279.196 83.9926 279.31C83.8622 279.525 83.6311 279.903 83.1345 280.666C83.1114 280.83 83.0276 280.951 82.9423 281.083C82.9268 281.115 82.8988 281.155 82.8709 281.195C82.2583 281.365 81.7435 281.47 81.2583 281.523C81.0035 281.754 81.0566 281.85 81.2125 282.083L81.278 282.17C81.5923 282.226 81.9484 282.143 82.2734 282.044L81.977 282.491C81.8855 282.667 81.7613 282.839 81.662 282.991C81.5518 283.142 81.4634 283.296 81.3656 283.438C81.2803 283.57 81.1779 283.745 80.9885 283.985C80.8847 284.248 81.1244 284.359 81.2831 284.337C81.505 284.024 81.7379 283.713 81.9428 283.442C82.2284 283.071 82.4907 282.708 82.7576 282.313C82.8709 282.14 82.9811 281.989 83.0944 281.816C83.379 281.767 83.6076 281.722 83.8704 281.67L83.8689 281.681C84.0275 281.659 84.1783 281.613 84.3245 281.601C84.4707 281.588 84.5719 281.58 84.6745 281.561C84.7896 281.533 84.9249 281.519 85.0369 281.512C85.0078 281.797 85.0034 281.985 84.9852 282.272C84.9656 282.647 84.9336 283.031 84.8736 283.456C84.9687 283.569 84.9393 283.698 84.91 283.827C84.8992 283.904 84.8747 284.156 84.8747 284.156C84.9292 284.163 84.9946 284.173 85.0148 284.187C85.0771 284.218 85.1518 284.239 85.2761 284.146C85.3877 283.906 85.4634 283.606 85.505 283.312C85.5557 282.952 85.5583 282.619 85.5733 282.277C85.5836 281.967 85.5801 281.678 85.6185 281.406C85.6543 281.389 85.6667 281.379 85.7009 281.373C85.7818 281.351 85.8517 281.328 85.9498 281.341L86.0851 281.327C86.6994 281.225 86.7538 281.233 87.1194 281.24C87.1194 281.24 87.2936 281.187 87.3853 281.166C87.5688 281.126 87.5984 281.152 87.9245 280.809C87.5433 280.755 87.4873 280.759 87.31 280.756C87.2322 280.756 87.1668 280.747 87.0891 280.747C87.0408 280.696 86.963 280.696 86.8961 280.697C86.8634 280.693 86.8183 280.697 86.7965 280.694C86.7732 280.702 86.7608 280.712 86.3097 280.759C86.1511 280.781 85.9628 280.777 85.6689 280.813C85.7008 280.351 85.7469 280.024 85.8037 279.543C85.888 278.789 85.9693 278.056 85.9666 277.367ZM85.1891 279.49C85.1723 279.687 85.1339 279.96 85.1186 280.146C85.0942 280.398 85.0588 280.649 85.0468 280.892C84.5242 280.973 84.0483 281.04 83.5412 281.09C83.5956 281.02 83.6375 280.959 83.6933 280.878C84.2224 280.042 84.8229 279.094 85.2819 278.203L85.3177 278.186C85.2842 278.659 85.2614 278.978 85.1891 279.49ZM91.2536 278.169C91.0761 278.088 90.9143 278.054 90.7618 278.033C90.2934 277.966 89.8844 278.031 89.5081 278.1C89.124 278.224 88.7136 278.377 88.3996 278.554C88.3375 278.601 88.2738 278.659 88.2116 278.706C87.8869 278.96 87.5467 279.245 87.4791 279.724C87.4487 280.175 87.5999 280.363 87.8818 280.57C87.9362 280.578 87.9783 280.595 88.0203 280.612C88.1355 280.661 88.2616 280.712 88.3919 280.497C88.3639 280.46 88.3015 280.351 88.2719 280.325C88.1424 280.14 88.0566 279.961 88.0982 279.745C88.126 279.627 88.2347 279.487 88.3139 279.398C88.7006 279.019 89.3038 278.76 89.8247 278.611C90.0191 278.572 90.2991 278.556 90.5823 278.596C90.8981 278.641 91.2063 278.74 91.3638 278.962C91.2809 279.628 90.5647 280.215 90.0721 280.557C90.0115 280.593 89.9276 280.637 89.853 280.693C89.7178 280.785 89.6059 280.869 89.4489 280.958C89.5325 280.681 89.6207 280.371 89.6421 280.141C89.5501 280.006 89.3695 279.947 89.1595 279.939C89.0588 280.181 89.034 280.277 88.9861 280.459C88.929 280.707 88.8469 280.973 88.7353 281.213L88.7369 281.202C88.7244 281.211 88.7198 281.244 88.7183 281.255C88.5737 281.334 88.4571 281.373 88.3514 281.414C88.1882 281.469 88.0079 281.565 87.7623 281.731L87.8374 281.986C88.0475 281.993 88.273 281.969 88.4549 281.939L88.5482 281.908C88.4355 282.392 88.2823 282.926 88.1246 283.493C88.041 283.77 87.9684 284.048 87.9034 284.272L87.7518 284.795L87.7287 284.959C87.698 285.176 87.6547 285.326 87.9492 285.678C88.1867 285.334 88.2269 285.207 88.3306 284.866C88.3507 284.802 88.3724 284.727 88.3956 284.642L88.8613 283.074C88.9169 282.838 88.9865 282.581 89.0405 282.355C89.104 282.142 89.1643 281.951 89.2169 281.736C89.3381 281.664 89.4111 281.619 89.5417 281.56C89.9396 281.338 90.3375 281.117 90.6683 280.819C91.2354 280.344 91.8412 279.829 91.9737 279.048C91.9731 278.659 91.7504 278.505 91.3548 278.239C91.3237 278.223 91.2832 278.195 91.2536 278.169ZM96.0614 278.848C95.8839 278.767 95.7221 278.733 95.5696 278.711C95.1012 278.645 94.6922 278.71 94.3158 278.779C93.9318 278.902 93.5214 279.055 93.2074 279.233C93.1453 279.28 93.0816 279.338 93.0194 279.385C92.6947 279.639 92.3545 279.924 92.2868 280.403C92.2565 280.854 92.4077 281.042 92.6896 281.249C92.744 281.256 92.7861 281.273 92.8281 281.29C92.9433 281.34 93.0694 281.391 93.1997 281.176C93.1716 281.139 93.1092 281.03 93.0796 281.004C92.9502 280.819 92.8644 280.64 92.906 280.424C92.9338 280.306 93.0425 280.165 93.1217 280.077C93.5084 279.698 94.1116 279.439 94.6325 279.29C94.8269 279.251 95.1069 279.235 95.39 279.275C95.7059 279.319 96.0141 279.419 96.1716 279.641C96.0887 280.307 95.3725 280.894 94.8799 281.236C94.8193 281.272 94.7353 281.315 94.6608 281.371C94.5256 281.463 94.4137 281.548 94.2567 281.637C94.3403 281.36 94.4284 281.05 94.4499 280.82C94.3578 280.684 94.1773 280.626 93.9673 280.618C93.8666 280.859 93.8418 280.956 93.7939 281.138C93.7367 281.385 93.6547 281.652 93.5431 281.891L93.5446 281.88C93.5322 281.89 93.5276 281.922 93.5261 281.933C93.3815 282.013 93.2649 282.052 93.1592 282.093C92.9959 282.147 92.8156 282.244 92.5701 282.409L92.6452 282.664C92.8552 282.672 93.0808 282.648 93.2627 282.618L93.356 282.587C93.2432 283.071 93.0901 283.605 92.9324 284.171C92.8488 284.448 92.7761 284.727 92.7112 284.951L92.5596 285.474L92.5365 285.637C92.5058 285.855 92.4624 286.005 92.757 286.357C92.9945 286.013 93.0347 285.885 93.1384 285.545C93.1585 285.481 93.1802 285.406 93.2034 285.321L93.669 283.753C93.7247 283.517 93.7942 283.26 93.8483 283.034C93.9118 282.821 93.9721 282.63 94.0247 282.415C94.1459 282.343 94.2189 282.298 94.3495 282.238C94.7474 282.017 95.1453 281.795 95.4761 281.498C96.0432 281.022 96.649 280.508 96.7815 279.727C96.7809 279.338 96.5582 279.184 96.1626 278.917C96.1315 278.902 96.091 278.874 96.0614 278.848ZM100.968 280.318C100.943 279.948 100.617 279.657 100.309 279.481C100.114 279.364 99.9012 279.301 99.6833 279.27C99.0734 279.184 98.3986 279.4 97.9295 279.811C97.6904 280.088 97.5586 280.392 97.5048 280.773C97.4848 280.915 97.4788 281.036 97.4728 281.158C97.5898 281.352 97.7129 281.502 97.9602 281.482C98.1046 281.324 98.0998 281.202 98.1089 281.058C98.1072 280.992 98.1071 280.914 98.1396 280.841C98.185 280.047 99.1021 279.61 99.745 279.856C99.9551 279.942 100.285 280.122 100.352 280.353C100.257 281.184 99.4234 282.055 98.673 282.649L98.8248 282.204C98.8449 282.14 98.8914 282.047 98.941 281.931C99.0076 281.774 99.0743 281.617 99.0989 281.443C99.1281 281.236 99.0594 281.093 98.7699 281.018C98.7156 281.089 98.6176 281.075 98.5789 281.191C98.4348 281.582 98.2117 282.139 98.0616 282.574L97.9679 282.372L97.8481 282.355C97.6847 282.332 97.4917 282.282 97.4158 282.505C97.4333 282.696 97.5549 282.858 97.6671 283.007C97.7139 283.069 97.742 283.106 97.7778 283.167C97.7312 283.183 97.7545 283.175 97.6939 283.211C97.5633 283.27 97.4312 283.34 97.2617 283.361C97.2182 283.432 97.122 283.563 97.0879 283.647C97.0879 283.647 97.0336 283.717 96.964 283.974C97.1165 283.996 97.286 283.975 97.625 283.856L97.5693 284.093C97.3312 284.992 97.2819 285.263 97.2358 285.59L97.2204 285.699C97.2005 285.918 97.1713 286.125 97.2588 286.371C97.4879 286.636 97.5825 286.439 97.6507 286.271C97.6646 286.25 97.6584 286.216 97.7564 286.23C97.7636 285.864 97.8207 285.617 97.8655 285.379C97.8871 285.304 97.9179 285.086 97.9302 284.999C97.9735 284.85 98.0183 284.689 98.0647 284.518C98.1203 284.282 98.176 284.045 98.2503 283.833C98.3438 283.958 98.4592 284.085 98.576 284.202C98.7427 284.358 98.9344 284.574 98.9953 284.694C100.223 285.989 100.543 286.323 102.59 287.168C102.438 286.747 102.405 286.742 102.272 286.668L102.282 286.669C102.211 286.626 102.136 286.604 102.091 286.531C100.543 285.613 99.8731 284.929 98.6555 283.324L99.0922 283.064C99.9917 282.357 100.847 281.49 100.968 280.318ZM104.283 282.452C104.286 282.43 104.253 282.193 104.223 282.011C104.194 281.662 104.164 281.325 103.905 281.033C103.798 280.929 103.571 280.808 103.369 280.979L103.347 281.132C103.356 281.144 103.392 281.205 103.402 281.217C103.42 281.242 103.419 281.253 103.438 281.278C103.147 281.525 102.931 281.873 102.72 282.187C102.677 282.259 102.578 282.412 102.523 282.482C102.089 283.12 101.749 283.872 101.639 284.656C101.568 285.157 101.967 285.636 102.378 285.872C102.787 286.04 103.151 285.825 103.47 285.615C103.915 285.211 104.12 284.629 104.206 284.019C104.26 283.638 104.273 283.229 104.28 282.863C104.286 282.742 104.283 282.608 104.283 282.452ZM103.594 284.021C103.471 284.815 103.135 285.312 102.685 285.348C102.64 285.353 102.589 285.324 102.537 285.294C102.508 285.268 102.478 285.241 102.436 285.224C102.218 284.96 102.206 284.57 102.329 284.254C102.609 283.449 103.063 282.591 103.644 281.94C103.71 282.571 103.733 283.352 103.594 284.021ZM109.415 279.989C109.334 280.011 109.228 280.051 109.18 280.078C109.132 280.104 109.101 280.166 109.036 280.157C108.626 280.933 108.291 281.652 108.096 282.246C107.983 282.419 107.941 282.558 107.884 282.727C107.861 282.813 107.825 282.908 107.79 283.003C107.52 283.809 107.193 284.707 106.923 285.525L106.604 286.368C106.593 286.444 106.534 286.547 106.498 286.642C106.27 285.821 106.158 284.806 106.053 283.891C106.003 283.384 105.929 282.885 105.858 282.441C105.852 282.407 105.839 282.339 105.841 282.25C105.812 282.057 105.809 281.846 105.56 281.722C105.424 281.658 105.169 281.578 105.204 281.882C105.28 282.76 105.389 283.642 105.501 284.502C105.524 284.649 105.535 284.807 105.56 284.943C105.571 285.023 105.601 285.127 105.612 285.206C105.711 285.765 105.829 286.348 105.96 286.911C106.012 287.173 106.081 287.472 106.245 287.728L106.354 287.744C106.439 287.767 106.569 287.796 106.726 287.785C106.823 287.566 106.938 287.226 107.032 286.951C107.162 286.58 107.286 286.176 107.454 285.855C107.604 285.265 107.833 284.664 108.067 284.031C108.242 283.578 108.424 283.07 108.568 282.602C108.678 282.295 108.785 282.01 108.906 281.705C109.083 281.241 109.259 280.778 109.416 280.3L109.415 279.989ZM110.886 283.062C110.78 282.947 110.622 282.803 110.417 283.074C110.317 283.549 110.196 284.009 110.034 284.453L109.877 284.464C109.642 284.475 109.419 284.477 109.46 284.894C109.498 284.944 109.504 284.978 109.512 285.001C109.545 285.084 109.576 285.177 109.7 285.161L109.755 285.169C109.752 285.191 109.736 285.222 109.722 285.242C109.615 285.449 109.477 285.719 109.428 285.912C109.262 286.221 109.105 286.544 109 286.895C109.033 287.056 109.124 287.357 109.371 287.337C110.829 287.242 112.194 287.091 113.577 286.897L113.851 286.847L114.292 286.554L114.015 286.47L113.688 286.424C112.604 286.471 112.187 286.512 111.683 286.541C111.234 286.578 110.75 286.62 109.81 286.665C109.926 286.315 110.033 286.108 110.185 285.741C110.287 285.489 110.404 285.216 110.504 284.975C110.909 284.865 111.453 284.787 111.977 284.694C112.49 284.6 112.935 284.518 113.674 284.323C113.576 284.231 113.518 284.167 113.523 284.135C113.298 283.992 113.207 284.012 113.067 284.059C112.975 284.079 112.891 284.123 112.779 284.052L112.427 284.102C112.346 284.124 112.314 284.119 112.281 284.115C112.227 284.107 112.126 284.115 112.066 284.14C111.782 284.111 111.488 284.147 111.191 284.205C111.034 284.216 110.861 284.259 110.726 284.273C110.761 284.1 110.78 284.047 110.828 283.865C110.893 283.641 110.958 283.417 110.987 283.21C110.953 283.138 110.904 283.087 110.886 283.062ZM113.573 281.809C113.419 281.72 113.279 281.69 113.169 281.685L112.972 281.657C111.957 281.692 110.991 281.766 109.98 282.001L109.901 282.09C109.873 282.286 109.925 282.471 109.986 282.591C110.26 282.696 110.381 282.625 110.493 282.54C110.553 282.504 110.615 282.458 110.681 282.467C111.012 282.403 111.463 282.355 111.892 282.305C112.423 282.246 112.938 282.219 113.544 282.016L113.573 281.809ZM119.117 283.058C118.707 282.5 118.094 282.203 117.429 282.109C116.591 281.99 115.639 282.2 114.933 282.556C114.916 282.598 114.831 282.653 114.806 282.672C114.683 282.754 114.511 282.874 114.58 283.095C114.661 283.307 114.798 283.359 114.933 283.423C114.944 283.424 114.966 283.427 115.006 283.455C115.131 283.517 115.36 283.472 115.45 283.385C115.505 283.304 115.496 283.058 115.334 283.024C115.542 282.887 115.839 282.829 116.113 282.778C116.491 282.698 116.92 282.648 117.334 282.706C117.835 282.777 118.327 282.991 118.583 283.383C118.634 283.49 118.644 283.658 118.622 283.81C118.579 284.115 118.449 284.408 118.334 284.592C117.689 285.545 116.652 286.432 115.614 287.018C115.792 286.466 115.975 285.725 116.079 285.14C116.101 285.065 116.132 285.003 116.155 284.917C116.296 284.471 116.415 284.099 116.466 283.661C116.307 283.528 116.144 283.427 115.892 283.48C115.822 283.737 115.738 284.014 115.678 284.283C115.59 284.671 115.501 285.069 115.371 285.44C115.302 285.686 115.216 286.062 115.143 286.419C115.06 286.773 114.987 287.13 114.909 287.374C114.845 287.432 114.759 287.486 114.677 287.519C114.618 287.544 114.522 287.597 114.45 287.632C114.245 287.747 114.1 287.827 114.006 287.869C113.855 287.914 113.797 287.928 113.717 288.106C113.779 288.292 113.851 288.258 113.949 288.272C113.97 288.275 113.992 288.278 114.076 288.312C114.353 288.24 114.622 288.145 114.846 288.054C114.858 288.122 114.907 288.252 114.963 288.326L115.173 288.334C115.322 288.144 115.37 287.961 115.416 287.79C115.583 287.714 115.775 287.608 115.911 287.516C116.046 287.424 116.193 287.322 116.392 287.25C116.727 287.009 117.214 286.622 117.565 286.338C118.21 285.785 118.796 285.179 119.134 284.438C119.137 284.416 119.157 284.352 119.16 284.331C119.188 284.212 119.223 284.04 119.242 283.909C119.283 283.615 119.29 283.327 119.117 283.058ZM121.32 281.669C121.18 281.95 121.137 282.099 121.091 282.27C121.068 282.356 121.035 282.429 120.996 282.546C120.909 283.167 120.717 283.739 120.536 284.314C120.322 284.961 120.116 285.554 120.044 286.3C120.041 286.555 120.158 286.749 120.408 286.873C120.514 286.277 120.63 285.693 120.847 285.18C120.932 284.97 121.019 284.749 121.093 284.537C121.169 284.47 121.169 284.392 121.183 284.294C121.209 284.109 121.44 283.808 121.434 283.541C121.477 283.391 121.519 283.253 121.574 283.094C121.618 282.945 121.687 282.766 121.742 282.618C121.687 282.454 121.713 282.347 121.727 282.249C121.747 282.107 121.769 281.955 121.673 281.764L121.32 281.669ZM120.26 288.707C120.256 288.651 120.287 288.589 120.32 288.516C120.365 288.356 120.484 288.217 120.131 288.045C120.069 288.092 120.036 288.087 120.013 288.095C119.968 288.1 119.875 288.131 119.783 288.151C119.727 288.466 119.685 288.526 119.625 288.718C119.558 288.953 119.494 289.177 119.424 289.511C119.612 289.516 119.619 289.55 119.648 289.576C119.717 289.642 119.795 289.719 119.956 289.675C120.034 289.52 120.087 289.383 120.058 289.268L120.26 288.707Z" fill="white"/>
<rect x="77.5748" y="273.486" width="49.5913" height="13.5097" transform="rotate(8.03648 77.5748 273.486)" stroke="white" stroke-width="0.2"/>
<path d="M232.749 425.531H230.319V420.041H229.014V433.316H230.319V426.716H232.749V433.826H234.069V419.441H232.749V425.531ZM222.339 420.716V421.931H226.884V420.716H222.339ZM221.529 423.701V424.901H225.894V424.946C225.159 426.941 223.419 428.921 220.944 430.226L221.769 431.276C223.014 430.541 224.154 429.626 225.099 428.516L227.424 431.186L228.264 430.271L225.819 427.571C226.599 426.446 227.184 425.156 227.484 423.701H221.529ZM248.694 428.291V419.441H247.344V425.261C244.764 426.056 241.434 426.386 238.554 426.386V424.481H244.104V423.356H238.554V421.796H244.494V420.641H237.219V427.541C241.344 427.541 244.809 427.166 247.344 426.371V428.291H248.694ZM244.014 428.531C241.014 428.531 239.259 429.506 239.259 431.216C239.259 432.941 241.014 433.916 244.014 433.916C247.014 433.916 248.769 432.941 248.769 431.216C248.769 429.506 247.014 428.531 244.014 428.531ZM246.939 432.146C246.414 432.491 245.439 432.716 244.014 432.716C242.589 432.716 241.599 432.491 241.089 432.146C240.789 431.906 240.639 431.591 240.639 431.216C240.639 430.856 240.774 430.526 241.089 430.301C241.614 429.956 242.589 429.731 244.014 429.731C245.439 429.731 246.414 429.956 246.939 430.301C247.254 430.526 247.389 430.856 247.389 431.216C247.389 431.591 247.254 431.906 246.939 432.146ZM266.841 419.441H265.521V427.841H266.841V424.781H269.316V423.581H266.841V419.441ZM263.916 426.191L259.761 423.221C260.136 422.306 260.406 421.316 260.526 420.236L259.116 420.101C258.831 423.146 257.151 425.561 254.916 427.031L255.891 428.081C257.226 427.121 258.381 425.876 259.206 424.376L263.166 427.226L263.916 426.191ZM262.236 428.081C259.236 428.081 257.481 429.176 257.481 430.991C257.481 432.821 259.236 433.916 262.236 433.916C265.236 433.916 266.991 432.821 266.991 430.991C266.991 429.176 265.236 428.081 262.236 428.081ZM265.161 432.041C264.621 432.461 263.646 432.716 262.236 432.716C260.826 432.716 259.836 432.461 259.311 432.041C259.011 431.771 258.861 431.426 258.861 430.991C258.861 430.571 259.011 430.211 259.311 429.956C259.851 429.551 260.826 429.281 262.236 429.281C263.646 429.281 264.621 429.551 265.161 429.956C265.461 430.211 265.611 430.571 265.611 430.991C265.611 431.426 265.461 431.771 265.161 432.041ZM281.841 423.431V419.441H280.521V424.526C278.301 425.276 274.596 425.711 272.271 425.711L272.241 421.931H278.001V420.716H270.891V426.941C274.566 426.941 278.376 426.446 280.521 425.651V427.466H281.841V424.631H284.316V423.431H281.841ZM281.841 433.691V428.216H272.841V433.691H281.841ZM280.521 429.386V432.506H274.146V429.386H280.521ZM291.966 428.201C295.086 428.201 296.991 426.701 296.991 424.526C296.991 422.366 295.086 420.866 291.966 420.866C288.846 420.866 286.941 422.366 286.941 424.526C286.941 426.701 288.846 428.201 291.966 428.201ZM291.966 427.001C290.451 427.001 289.356 426.611 288.801 425.921C288.486 425.531 288.321 425.066 288.321 424.526C288.321 424.001 288.471 423.521 288.801 423.146C289.356 422.456 290.451 422.066 291.966 422.066C293.481 422.066 294.546 422.471 295.131 423.146C295.461 423.521 295.611 424.001 295.611 424.526C295.611 425.066 295.446 425.531 295.131 425.921C294.576 426.611 293.481 427.001 291.966 427.001ZM299.091 432.131V430.886H284.841V432.131H299.091ZM307.641 428.291H312.426V427.106H303.636V425.096H311.541V420.791H302.166V421.976H310.206V423.896H302.301V428.291H306.291V430.886H299.841V432.131H314.091V430.886H307.641V428.291ZM197.023 447.266V452.816H206.323V447.266H197.023ZM198.373 451.631V448.451H204.973V451.631H198.373ZM194.548 454.511V455.741H200.998V460.916H202.348V455.741H208.798V454.511H194.548ZM212.098 450.716V454.916H222.028V453.731H213.418V451.901H221.173V447.791H211.948V448.961H219.853V450.716H212.098ZM219.718 455.591H218.443V457.886H215.218V455.591H213.943V457.886H209.548V459.131H223.798V457.886H219.718V455.591ZM239.844 451.091V452.996H236.019V454.166H239.844V457.241H241.194V446.441H239.844V449.921H236.364C236.574 449.351 236.739 448.736 236.814 448.091H229.734V449.291H235.164V449.336C234.504 451.346 232.419 453.476 228.969 454.526L229.719 455.696C232.194 454.886 234.504 453.311 235.794 451.091H239.844ZM233.544 455.816H232.194V460.616H241.794V459.386H233.544V455.816ZM254.844 450.206H251.544V451.406H254.844V455.216H256.194V446.441H254.844V450.206ZM252.759 453.941L249.534 451.841C250.524 450.686 251.229 449.336 251.484 447.791H244.524V449.006H249.864V449.051C249.144 450.971 246.969 453.071 243.669 454.226L244.374 455.321C245.964 454.706 247.464 453.836 248.664 452.741L252.024 454.931L252.759 453.941ZM254.814 457.196V460.871H256.194V455.966H246.744V457.196H254.814ZM269.466 454.796C272.586 454.796 274.491 453.341 274.491 451.211C274.491 449.096 272.586 447.641 269.466 447.641C266.346 447.641 264.441 449.096 264.441 451.211C264.441 453.341 266.346 454.796 269.466 454.796ZM266.301 449.891C266.856 449.216 267.951 448.841 269.466 448.841C270.981 448.841 272.046 449.231 272.631 449.891C272.961 450.251 273.111 450.716 273.111 451.226C273.111 451.751 272.946 452.201 272.631 452.576C272.076 453.251 270.981 453.626 269.466 453.626C267.951 453.626 266.856 453.251 266.301 452.576C265.986 452.201 265.821 451.751 265.821 451.226C265.821 450.716 265.971 450.251 266.301 449.891ZM272.811 454.916H271.536V457.886H267.411V454.916H266.136V457.886H262.341V459.131H276.591V457.886H272.811V454.916ZM290.091 455.291V446.441H288.741V450.806H285.441V452.006H288.741V455.291H290.091ZM279.306 446.891V448.061H284.646V446.891H279.306ZM286.386 453.971L283.416 452.486C284.331 451.616 285.006 450.566 285.321 449.351H278.376V450.521H283.596V450.566C282.531 452.141 280.566 453.431 277.716 454.271L278.361 455.336C279.816 454.871 281.256 454.196 282.471 453.296L285.756 454.916L286.386 453.971ZM285.411 455.531C282.411 455.531 280.656 456.506 280.656 458.216C280.656 459.941 282.411 460.916 285.411 460.916C288.411 460.916 290.166 459.941 290.166 458.216C290.166 456.506 288.411 455.531 285.411 455.531ZM288.336 459.146C287.811 459.491 286.836 459.716 285.411 459.716C283.986 459.716 282.996 459.491 282.486 459.146C282.186 458.906 282.036 458.591 282.036 458.216C282.036 457.856 282.171 457.526 282.486 457.301C283.011 456.956 283.986 456.731 285.411 456.731C286.836 456.731 287.811 456.956 288.336 457.301C288.651 457.526 288.786 457.856 288.786 458.216C288.786 458.591 288.651 458.906 288.336 459.146ZM307.637 451.556H303.512V452.756H307.637V460.841H308.987V446.441H307.637V451.556ZM300.542 448.106C300.332 452.111 298.742 455.276 296.537 457.316L297.602 458.276C298.847 457.061 299.897 455.561 300.662 453.761L304.832 457.841L305.657 456.851L301.127 452.531C301.562 451.211 301.832 449.741 301.937 448.151L300.542 448.106ZM323.987 460.841V446.441H322.637V460.841H323.987ZM319.487 457.841V448.241H318.167V451.856H313.847V448.241H312.512V457.841H319.487ZM313.847 453.056H318.167V456.626H313.847V453.056ZM338.912 455.216L339.707 454.136L333.752 450.041C334.142 449.396 334.472 448.706 334.712 447.956L333.377 447.641C332.327 450.656 329.642 452.891 326.792 454.151L327.527 455.336C329.537 454.361 331.562 452.951 333.017 451.106L338.912 455.216ZM326.237 459.131H340.487V457.886H326.237V459.131ZM250.643 487.841V473.441H249.293V487.841H250.643ZM242.618 485.171C244.943 485.171 246.443 483.356 246.443 480.146C246.443 476.951 244.943 475.136 242.618 475.136C240.293 475.136 238.793 476.951 238.793 480.146C238.793 483.356 240.293 485.171 242.618 485.171ZM242.618 483.911C241.088 483.911 240.173 482.621 240.173 480.146C240.173 477.686 241.088 476.396 242.618 476.396C244.148 476.396 245.063 477.686 245.063 480.146C245.063 482.621 244.148 483.911 242.618 483.911ZM263.303 478.286C264.278 477.866 264.818 477.206 264.818 476.321C264.818 474.701 263.003 473.816 260.018 473.816C257.033 473.816 255.218 474.701 255.218 476.321C255.218 477.206 255.758 477.866 256.733 478.286V480.311H252.893V481.541H267.143V480.311H263.303V478.286ZM256.988 475.586C257.513 475.241 258.578 475.016 260.018 475.016C261.458 475.016 262.508 475.226 263.048 475.586C263.318 475.766 263.438 476.021 263.438 476.321C263.438 476.621 263.318 476.876 263.048 477.056C262.523 477.416 261.458 477.626 260.018 477.626C258.578 477.626 257.513 477.416 256.988 477.056C256.718 476.876 256.598 476.621 256.598 476.321C256.598 476.021 256.718 475.766 256.988 475.586ZM258.053 478.676C258.638 478.766 259.283 478.826 260.018 478.826C260.753 478.826 261.398 478.766 261.983 478.676V480.311H258.053V478.676ZM260.018 482.606C257.018 482.606 255.263 483.566 255.263 485.261C255.263 486.956 257.018 487.916 260.018 487.916C263.018 487.916 264.773 486.956 264.773 485.261C264.773 483.566 263.018 482.606 260.018 482.606ZM262.958 486.161C262.418 486.491 261.443 486.716 260.018 486.716C258.593 486.716 257.603 486.506 257.078 486.161C256.793 485.936 256.643 485.621 256.643 485.261C256.643 484.901 256.778 484.586 257.078 484.361C257.603 484.016 258.593 483.806 260.018 483.806C261.443 483.806 262.418 484.031 262.958 484.361C263.258 484.586 263.393 484.901 263.393 485.261C263.393 485.621 263.258 485.936 262.958 486.161ZM279.893 479.681V473.441H278.573V487.841H279.893V480.881H282.368V479.681H279.893ZM269.798 474.491V475.691H275.558V474.491H269.798ZM276.968 478.661V477.431H268.043V478.661H276.968ZM272.663 479.936C270.668 479.936 269.348 481.166 269.348 482.816C269.348 484.466 270.668 485.696 272.663 485.696C274.658 485.696 275.963 484.466 275.963 482.816C275.963 481.166 274.658 479.936 272.663 479.936ZM272.663 484.496C271.403 484.496 270.698 483.866 270.698 482.816C270.698 481.781 271.403 481.136 272.663 481.136C273.923 481.136 274.628 481.781 274.628 482.816C274.628 483.866 273.923 484.496 272.663 484.496ZM295.643 487.841V473.441H294.293V487.841H295.643ZM284.318 485.456C288.083 483.761 291.173 480.326 291.698 475.691H284.213V476.936H290.093V476.981C289.463 479.756 287.198 482.681 283.418 484.301L284.318 485.456Z" fill="white"/>
<rect x="79.165" y="408.098" width="54.9184" height="89.9859" rx="11.5" stroke="white"/>
<path d="M79.6128 487.685H134.583" stroke="white"/>
<path d="M79.6128 416.602H134.583" stroke="white"/>
<rect x="101.611" y="491.202" width="10.9732" height="2.44331" rx="1.22165" stroke="white" stroke-width="0.4"/>
<ellipse cx="139.891" cy="457.816" rx="16.8273" ry="17.4493" fill="#777777"/>
<path d="M123.781 476.615L125.278 463.755L133.873 472.107L123.781 476.615Z" fill="#777777"/>
<circle cx="139.891" cy="456.179" r="16.8273" fill="white"/>
<path d="M123.781 474.307L125.278 461.906L133.873 469.96L123.781 474.307Z" fill="white"/>
<path d="M140.398 457.096V454.743C141.308 454.457 143.167 453.417 143.167 451.506C143.167 449.621 141.906 448.841 140.151 448.841C139.371 448.841 138.279 449.062 137.616 449.361V450.44C138.292 450.102 139.254 449.894 140.073 449.894C141.074 449.894 141.815 450.414 141.815 451.532C141.815 453.157 140.047 453.898 139.228 454.184V457.096H140.398ZM139.813 460.476C140.372 460.476 140.853 460.008 140.853 459.449C140.853 458.877 140.372 458.396 139.813 458.396C139.241 458.396 138.773 458.877 138.773 459.449C138.773 460.008 139.241 460.476 139.813 460.476Z" fill="black"/>
<ellipse rx="23.5582" ry="24.4388" transform="matrix(-1 0 0 1 66.5582 430.872)" fill="#777777"/>
<path d="M89.1112 457.2L87.016 439.189L74.9827 450.887L89.1112 457.2Z" fill="#777777"/>
<circle r="23.5582" transform="matrix(-1 0 0 1 67.5736 429.991)" fill="white"/>
<path d="M90.1266 455.371L88.0314 438.009L75.998 449.285L90.1266 455.371Z" fill="white"/>
<rect width="23.5582" height="2.71826" transform="matrix(-1 0 0 1 74.8223 426.367)" fill="black"/>
<rect width="23.5582" height="2.71826" transform="matrix(-1 0 0 1 82.0709 434.522)" fill="black"/>
<path d="M62.3459 644.276L48.3783 631.373L89.259 620.358L98.4572 633.261M62.3459 644.276L98.4572 655.606M62.3459 644.276L98.4572 633.261M62.3459 644.276L53.1477 659.068L62.3459 661.874M98.4572 655.606L137.975 644.276M98.4572 655.606L110.381 668.51L137.975 659.943M98.4572 655.606L89.259 670.083L62.3459 661.874M98.4572 655.606V705.646M137.975 644.276L98.4572 633.261M137.975 644.276L151.943 631.373L113.106 620.358L98.4572 633.261M137.975 644.276L151.943 655.606L137.975 659.943M98.4572 705.646L137.975 693.058V659.943M98.4572 705.646L62.3459 693.058V661.874" stroke="white" stroke-width="2"/>
<path d="M83.6905 645.586V602.641H115.884V645.586H83.6905Z" fill="#7D7D7D"/>
<path d="M123.655 645.586H115.884M115.884 645.586H76.8077H83.6905V602.641H115.884V645.586Z" stroke="white" stroke-width="1.2"/>
<path d="M93.522 600.051L115.886 602.856V644.507L93.522 647.744V600.051Z" fill="#E5E5E5" stroke="white"/>
<ellipse cx="98.4656" cy="625.084" rx="1.17706" ry="1.07902" fill="white"/>
<path d="M209.879 646.965H206.879V648.165H209.879V655.5H211.229V641.1H209.879V646.965ZM199.004 643.125V644.355H207.344V643.125H199.004ZM205.919 645.495L204.554 645.405L204.164 651.18C203.474 651.24 202.754 651.285 202.019 651.33L201.629 645.405L200.264 645.495L200.729 651.39C200.039 651.405 199.364 651.42 198.704 651.42L198.854 652.65C202.109 652.65 205.874 652.305 208.454 651.75L208.349 650.565C207.494 650.76 206.519 650.91 205.469 651.03L205.919 645.495ZM215.429 641.55V642.75H225.779V641.55H215.429ZM225.719 646.2V645.03H223.529L223.799 643.38L222.434 643.29L222.194 645.03H218.984L218.744 643.29L217.379 643.38L217.649 645.03H215.504V646.2H225.719ZM213.479 648.585H227.729V647.37H213.479V648.585ZM225.074 653.07V649.725H215.819V650.85H223.724V651.99H216.104V655.425H225.974V654.285H217.439V653.07H225.074ZM241.079 647.925L241.799 646.86L236.039 643.47C236.399 642.93 236.714 642.36 236.939 641.745L235.604 641.4C234.629 643.935 232.034 645.825 229.184 646.875L229.904 648.045C231.854 647.25 233.804 646.08 235.229 644.49L241.079 647.925ZM228.479 648.945V650.175H232.484V655.575H233.789V650.175H237.434V655.575H238.739V650.175H242.729V648.945H228.479ZM245.174 650.295C246.839 649.89 248.819 649.14 250.589 648.06L256.034 650.22L256.739 649.17L251.729 647.295C253.364 646.095 254.684 644.565 255.134 642.75H245.894V643.995H251.729L253.229 644.01V644.055C252.104 646.275 248.309 648.255 244.469 649.065L245.174 650.295ZM243.479 653.79H257.729V652.545H243.479V653.79ZM271.229 655.5V641.1H269.909V655.5H271.229ZM263.729 649.605C265.949 649.605 267.479 648.315 267.479 646.155C267.479 644.01 265.949 642.72 263.729 642.72C261.509 642.72 259.979 644.01 259.979 646.155C259.979 648.315 261.509 649.605 263.729 649.605ZM263.729 648.42C262.334 648.42 261.329 647.64 261.329 646.155C261.329 644.685 262.334 643.905 263.729 643.905C265.124 643.905 266.129 644.685 266.129 646.155C266.129 647.64 265.124 648.42 263.729 648.42ZM258.704 653.22C263.114 653.22 266.414 652.935 269.279 652.29L269.099 651.12C266.249 651.765 263.054 651.975 258.554 651.975L258.704 653.22ZM289.375 641.1H288.055V649.65H289.375V646.515H291.85V645.315H289.375V641.1ZM283.81 642.15V644.46H279.64V642.15H278.35V648.825H285.1V642.15H283.81ZM279.64 647.7V645.57H283.81V647.7H279.64ZM284.77 649.89C281.77 649.89 280.015 650.955 280.015 652.725C280.015 654.51 281.77 655.575 284.77 655.575C287.77 655.575 289.525 654.51 289.525 652.725C289.525 650.955 287.77 649.89 284.77 649.89ZM287.695 653.73C287.17 654.12 286.18 654.375 284.77 654.375C283.36 654.375 282.37 654.135 281.845 653.73C281.545 653.475 281.395 653.145 281.395 652.725C281.395 652.32 281.545 651.975 281.845 651.735C282.385 651.345 283.36 651.09 284.77 651.09C286.18 651.09 287.155 651.345 287.695 651.735C287.995 651.975 288.145 652.32 288.145 652.725C288.145 653.145 287.995 653.475 287.695 653.73ZM295 641.775V646.875H304V641.775H295ZM296.35 645.705V642.945H302.65V645.705H296.35ZM292.375 649.425H299.02V652.71H300.295V649.425H306.625V648.195H292.375V649.425ZM294.955 650.775V655.275H304.495V654.045H296.215V650.775H294.955ZM323.871 647.925L324.591 646.86L318.831 643.47C319.191 642.93 319.506 642.36 319.731 641.745L318.396 641.4C317.421 643.935 314.826 645.825 311.976 646.875L312.696 648.045C314.646 647.25 316.596 646.08 318.021 644.49L323.871 647.925ZM311.271 648.945V650.175H317.721V655.575H319.071V650.175H325.521V648.945H311.271ZM337.671 647.415H333.606C334.206 646.185 334.611 644.835 334.776 643.35H327.576V644.595H333.201V644.64C332.601 647.415 330.456 650.37 326.796 652.065L327.711 653.205C329.796 652.2 331.641 650.625 332.931 648.615H337.671V655.5H339.021V641.1H337.671V647.415ZM252.625 682.5V668.1H251.275V682.5H252.625ZM241.3 680.115C245.065 678.42 248.155 674.985 248.68 670.35H241.195V671.595H247.075V671.64C246.445 674.415 244.18 677.34 240.4 678.96L241.3 680.115ZM266.875 674.49V668.1H265.555V676.935C263.215 677.73 259.69 678.18 257.38 678.18L257.35 671.355H263.11V670.125H256V679.425C259.66 679.425 263.29 678.945 265.555 678.105V682.5H266.875V675.69H269.35V674.49H266.875ZM281.275 677.385C278.695 678.15 275.395 678.57 272.485 678.57V675.33H278.11V670.125H270.925V671.355H276.79V674.145H271.135V679.785C275.275 679.785 278.755 679.32 281.275 678.54V682.5H282.625V668.1H281.275V677.385ZM297.625 682.5V668.1H296.275V682.5H297.625ZM286.3 680.115C290.065 678.42 293.155 674.985 293.68 670.35H286.195V671.595H292.075V671.64C291.445 674.415 289.18 677.34 285.4 678.96L286.3 680.115Z" fill="white"/>
<path d="M64.4971 1049.8L50.5295 1036.89L91.4103 1025.88L100.608 1038.78L115.257 1025.88L154.094 1036.89L140.126 1049.8L154.094 1061.13L140.126 1065.46V1098.58L100.608 1111.17L64.4971 1098.58V1067.4L55.299 1064.59L64.4971 1049.8Z" fill="#3E1F4B"/>
<path d="M64.4971 1049.8L50.5295 1036.89L91.4103 1025.88L100.608 1038.78M64.4971 1049.8L100.608 1061.13M64.4971 1049.8L100.608 1038.78M64.4971 1049.8L55.299 1064.59L64.4971 1067.4M100.608 1061.13L140.126 1049.8M100.608 1061.13L112.532 1074.03L140.126 1065.46M100.608 1061.13L91.4103 1075.61L64.4971 1067.4M100.608 1061.13V1111.17M140.126 1049.8L100.608 1038.78M140.126 1049.8L154.094 1036.89L115.257 1025.88L100.608 1038.78M140.126 1049.8L154.094 1061.13L140.126 1065.46M100.608 1111.17L140.126 1098.58V1065.46M100.608 1111.17L64.4971 1098.58V1067.4" stroke="white" stroke-width="2"/>
<path d="M85.8417 1051.11V1008.16H118.035V1051.11H85.8417Z" fill="#7D7D7D"/>
<path d="M125.806 1051.11H118.035M118.035 1051.11H78.959H85.8417V1008.16H118.035V1051.11Z" stroke="white" stroke-width="1.2"/>
<path d="M95.6732 1005.57L118.037 1008.38V1050.03L95.6732 1053.27V1005.57Z" fill="#E5E5E5" stroke="white"/>
<ellipse cx="100.617" cy="1030.61" rx="1.17706" ry="1.07902" fill="white"/>
<path d="M227.633 1043.81H224.633V1045.01H227.633V1052.34H228.983V1037.94H227.633V1043.81ZM216.758 1039.97V1041.2H225.098V1039.97H216.758ZM223.673 1042.34L222.308 1042.25L221.918 1048.02C221.228 1048.08 220.508 1048.13 219.773 1048.17L219.383 1042.25L218.018 1042.34L218.483 1048.23C217.793 1048.25 217.118 1048.26 216.458 1048.26L216.608 1049.49C219.863 1049.49 223.628 1049.15 226.208 1048.59L226.103 1047.41C225.248 1047.6 224.273 1047.75 223.223 1047.87L223.673 1042.34ZM233.183 1038.39V1039.59H243.533V1038.39H233.183ZM243.473 1043.04V1041.87H241.283L241.553 1040.22L240.188 1040.13L239.948 1041.87H236.738L236.498 1040.13L235.133 1040.22L235.403 1041.87H233.258V1043.04H243.473ZM231.233 1045.43H245.483V1044.21H231.233V1045.43ZM242.828 1049.91V1046.57H233.573V1047.69H241.478V1048.83H233.858V1052.27H243.728V1051.13H235.193V1049.91H242.828ZM258.833 1044.77L259.553 1043.7L253.793 1040.31C254.153 1039.77 254.468 1039.2 254.693 1038.59L253.358 1038.24C252.383 1040.78 249.788 1042.67 246.938 1043.72L247.658 1044.89C249.608 1044.09 251.558 1042.92 252.983 1041.33L258.833 1044.77ZM246.233 1045.79V1047.02H250.238V1052.42H251.543V1047.02H255.188V1052.42H256.493V1047.02H260.483V1045.79H246.233ZM262.928 1047.14C264.593 1046.73 266.573 1045.98 268.343 1044.9L273.788 1047.06L274.493 1046.01L269.483 1044.14C271.118 1042.94 272.438 1041.41 272.888 1039.59H263.648V1040.84H269.483L270.983 1040.85V1040.9C269.858 1043.12 266.063 1045.1 262.223 1045.91L262.928 1047.14ZM261.233 1050.63H275.483V1049.39H261.233V1050.63ZM291.529 1041.86H287.599C288.049 1041.09 288.349 1040.24 288.469 1039.29H281.419V1040.49H286.819V1040.54C286.129 1042.34 284.059 1044.24 280.654 1045.11L281.359 1046.3C283.414 1045.71 285.394 1044.62 286.744 1043.06H291.529V1045.97H292.879V1037.94H291.529V1041.86ZM292.879 1052.19V1046.72H283.804V1052.19H292.879ZM291.559 1047.89V1051.01H285.124V1047.89H291.559ZM307.729 1044.77L308.449 1043.7L302.689 1040.31C303.049 1039.77 303.364 1039.2 303.589 1038.59L302.254 1038.24C301.279 1040.78 298.684 1042.67 295.834 1043.72L296.554 1044.89C298.504 1044.09 300.454 1042.92 301.879 1041.33L307.729 1044.77ZM295.129 1045.79V1047.02H301.579V1052.42H302.929V1047.02H309.379V1045.79H295.129ZM311.719 1054.31C313.219 1053.26 314.074 1051.26 314.074 1049.63C314.074 1048.44 313.429 1047.83 312.679 1047.83C311.929 1047.83 311.464 1048.38 311.389 1049.01C312.064 1049.07 312.709 1049.61 312.709 1050.47C312.709 1051.59 312.199 1052.78 310.954 1053.74L311.719 1054.31ZM204.088 1063.59V1064.79H214.738V1063.59H204.088ZM214.663 1070.42V1069.23H212.308L212.728 1065.81L211.363 1065.69L211.018 1069.23H207.778L207.433 1065.69L206.068 1065.81L206.488 1069.23H204.178V1070.42H214.663ZM202.288 1074.63H216.538V1073.39H202.288V1074.63ZM228.688 1071.23C226.108 1071.99 222.808 1072.41 219.898 1072.41V1069.17H225.523V1063.97H218.338V1065.2H224.203V1067.99H218.548V1073.63C222.688 1073.63 226.168 1073.16 228.688 1072.38V1076.34H230.038V1061.94H228.688V1071.23ZM245.038 1076.34V1061.94H243.688V1076.34H245.038ZM240.538 1073.42V1063.97H233.563V1073.42H240.538ZM234.898 1065.2H239.203V1072.19H234.898V1065.2ZM258.688 1065.56H255.403C255.118 1063.88 253.723 1062.96 251.833 1062.96C249.688 1062.96 248.188 1064.13 248.188 1066.25C248.188 1068.38 249.688 1069.55 251.833 1069.55C253.783 1069.55 255.208 1068.56 255.433 1066.76H258.688V1069.97H260.038V1061.94H258.688V1065.56ZM251.833 1068.38C250.513 1068.38 249.523 1067.72 249.523 1066.25C249.523 1064.79 250.513 1064.13 251.833 1064.13C253.138 1064.13 254.128 1064.78 254.128 1066.25C254.128 1067.72 253.138 1068.38 251.833 1068.38ZM260.038 1076.19V1070.72H250.963V1076.19H260.038ZM258.718 1071.89V1075.01H252.283V1071.89H258.718ZM277.989 1067.96H275.559V1062.54H274.254V1071.29C273.564 1071.5 272.799 1071.66 271.899 1071.8L272.139 1066.32L270.774 1066.25L270.624 1071.95C270.129 1071.99 269.604 1072.02 269.034 1072.05L268.884 1066.25L267.519 1066.32L267.774 1072.1C267.294 1072.11 266.799 1072.11 266.259 1072.11L266.409 1073.34C270.219 1073.34 272.529 1073.01 274.254 1072.43V1075.82H275.559V1069.14H277.989V1076.33H279.309V1061.94H277.989V1067.96ZM266.499 1063.97V1065.2H273.144V1063.97H266.499ZM292.584 1076.34H293.934V1061.94H292.584V1076.34ZM288.654 1065.35V1065.39C288.474 1066.19 288.219 1066.94 287.889 1067.64L282.009 1067.9L282.069 1069.16L287.184 1068.84C286.014 1070.57 284.229 1071.95 281.709 1072.91L282.519 1074.09C286.794 1072.2 289.629 1069.16 290.184 1064.12H282.654V1065.35H288.654ZM307.584 1061.94V1070.34H308.934V1061.94H307.584ZM305.874 1068.87L302.499 1067.06C303.534 1065.98 304.269 1064.69 304.524 1063.22H297.309V1064.42H302.874V1064.46C302.109 1066.26 299.844 1068.17 296.409 1069.16L297.069 1070.28C298.734 1069.74 300.309 1068.95 301.569 1067.91L305.169 1069.88L305.874 1068.87ZM304.254 1070.58C301.254 1070.58 299.499 1071.68 299.499 1073.49C299.499 1075.32 301.254 1076.42 304.254 1076.42C307.254 1076.42 309.009 1075.32 309.009 1073.49C309.009 1071.68 307.254 1070.58 304.254 1070.58ZM307.179 1074.54C306.639 1074.96 305.664 1075.22 304.254 1075.22C302.844 1075.22 301.854 1074.96 301.329 1074.54C301.029 1074.27 300.879 1073.93 300.879 1073.49C300.879 1073.07 301.029 1072.71 301.329 1072.46C301.869 1072.05 302.844 1071.78 304.254 1071.78C305.664 1071.78 306.639 1072.05 307.179 1072.46C307.479 1072.71 307.629 1073.07 307.629 1073.49C307.629 1073.93 307.479 1074.27 307.179 1074.54ZM318.801 1062.09V1063.22H325.611V1062.09H318.801ZM316.281 1064.28V1065.45H328.131V1064.28H316.281ZM318.141 1068.18C318.141 1069.47 319.581 1070.12 322.221 1070.12C324.861 1070.12 326.301 1069.47 326.301 1068.18C326.301 1066.89 324.861 1066.25 322.221 1066.25C319.581 1066.25 318.141 1066.89 318.141 1068.18ZM324.966 1068.18C324.966 1068.39 324.861 1068.56 324.621 1068.71C324.171 1068.93 323.376 1069.04 322.221 1069.04C321.066 1069.04 320.256 1068.93 319.821 1068.71C319.581 1068.56 319.461 1068.39 319.461 1068.18C319.461 1067.96 319.581 1067.81 319.821 1067.66C320.256 1067.43 321.066 1067.33 322.221 1067.33C323.376 1067.33 324.171 1067.43 324.621 1067.66C324.861 1067.81 324.966 1067.96 324.966 1068.18ZM315.081 1070.99V1072.2H321.531V1076.42H322.881V1072.2H329.331V1070.99H315.081ZM264.937 1091.96H262.507V1086.54H261.202V1099.82H262.507V1093.14H264.937V1100.33H266.257V1085.94H264.937V1091.96ZM255.232 1091.49V1087.97H253.957V1097.34H259.582V1087.97H258.307V1091.49H255.232ZM255.232 1096.14V1092.68H258.307V1096.14H255.232ZM280.642 1091.58L281.302 1090.52L275.827 1087.68C276.142 1087.26 276.397 1086.81 276.607 1086.33L275.227 1085.94C274.342 1088.06 271.822 1089.68 268.987 1090.52L269.692 1091.7C271.597 1091.06 273.547 1090.05 274.957 1088.67L280.642 1091.58ZM275.932 1090.37H274.582V1092.74H268.132V1093.97H282.382V1092.74H275.932V1090.37ZM275.257 1095.11C272.257 1095.11 270.502 1096.07 270.502 1097.76C270.502 1099.46 272.257 1100.42 275.257 1100.42C278.257 1100.42 280.012 1099.46 280.012 1097.76C280.012 1096.07 278.257 1095.11 275.257 1095.11ZM278.197 1098.66C277.657 1098.99 276.682 1099.22 275.257 1099.22C273.832 1099.22 272.842 1099.01 272.317 1098.66C272.032 1098.44 271.882 1098.12 271.882 1097.76C271.882 1097.4 272.017 1097.09 272.317 1096.86C272.842 1096.52 273.832 1096.31 275.257 1096.31C276.682 1096.31 277.657 1096.53 278.197 1096.86C278.497 1097.09 278.632 1097.4 278.632 1097.76C278.632 1098.12 278.497 1098.44 278.197 1098.66Z" fill="white"/>
<path d="M97.6807 904.461L96.8038 865.002L80.7604 899.382C80.7604 899.382 79.4079 901.63 77.5132 902.668C76.0037 903.494 71.3752 904.461 71.3752 904.461H49.454V902.219L55.5919 894.597C55.5919 894.597 73.1289 895.942 78.39 891.906C83.6511 887.87 93.2964 854.24 93.2964 854.24C93.2964 854.24 93.7349 851.55 97.2423 847.066C100.75 842.582 101.188 849.756 101.188 849.756L100.311 904.461H97.6807Z" stroke="white" stroke-width="1.5"/>
<rect x="105.638" y="829.092" width="30.9089" height="13.7592" transform="rotate(-35.0952 105.638 829.092)" stroke="white" stroke-width="2"/>
<rect x="115.153" y="818.776" width="3.4763" height="1.62227" transform="rotate(-35.0952 115.153 818.776)" stroke="white" stroke-width="1.62227"/>
<rect x="122.948" y="834.496" width="8.19714" height="27.6644" transform="rotate(-35.0952 122.948 834.496)" stroke="white" stroke-width="2"/>
<path d="M212.357 851.587V852.978H209.042V853.992H212.357V855.552H213.527V848.272H212.357V850.573H209.458C209.575 850.209 209.666 849.832 209.718 849.442H203.595V850.482H208.275V850.521C207.69 852.12 205.896 853.823 202.932 854.616L203.556 855.643C205.818 854.98 207.95 853.602 209.029 851.587H212.357ZM209.471 855.76C206.871 855.76 205.35 856.709 205.35 858.282C205.35 859.868 206.871 860.817 209.471 860.817C212.071 860.817 213.592 859.868 213.592 858.282C213.592 856.709 212.071 855.76 209.471 855.76ZM212.006 859.192C211.538 859.556 210.693 859.777 209.471 859.777C208.249 859.777 207.391 859.556 206.936 859.192C206.676 858.958 206.546 858.659 206.546 858.282C206.546 857.918 206.676 857.606 206.936 857.385C207.404 857.034 208.249 856.8 209.471 856.8C210.693 856.8 211.538 857.034 212.006 857.385C212.266 857.606 212.396 857.918 212.396 858.282C212.396 858.659 212.266 858.958 212.006 859.192ZM225.357 850.443H222.497V851.457H225.357V852.783H222.497V853.797H225.357V856.137H226.527V848.272H225.357V850.443ZM216.569 855.812C219.26 855.812 221.522 855.708 223.407 855.279L223.29 854.317C221.47 854.72 219.273 854.798 217.726 854.798V852.952H221.834V849.377H216.387V850.404H220.716V851.977H216.569V855.812ZM225.331 857.853V860.778H226.527V856.787H218.337V857.853H225.331ZM233.999 858.737C236.248 856.891 238.523 854.278 238.523 852.367C238.523 850.43 237.093 849.494 235.39 849.494C234.389 849.494 233.258 849.793 232.543 850.391V851.613C233.583 850.755 234.428 850.612 235.221 850.612C236.287 850.612 237.223 851.301 237.223 852.445C237.223 854.356 234.701 856.852 232.218 858.932V859.79H238.939V858.737H233.999ZM243.632 859.92C245.868 859.92 247.233 857.853 247.233 854.577C247.233 851.795 246.336 849.494 243.762 849.494C241.474 849.494 240.2 851.652 240.2 854.863C240.2 857.996 241.266 859.92 243.632 859.92ZM243.723 858.88C242.215 858.88 241.448 857.268 241.448 854.798C241.448 852.497 242.098 850.56 243.619 850.56C245.179 850.56 245.985 852.458 245.985 854.642C245.985 857.086 245.322 858.88 243.723 858.88ZM259.154 857.632V848.272H257.984V850.313H253.694V851.327H257.984V852.588H253.694V853.602H257.984V857.632H259.154ZM256.008 854.239C254.097 854.642 251.731 854.785 250.522 854.785V849.637H249.339V855.877C251.835 855.877 254.305 855.695 256.151 855.279L256.008 854.239ZM252.524 856.657H251.354V860.557H259.674V859.504H252.524V856.657ZM275.53 860.752V848.272H274.36V860.752H275.53ZM268.575 858.438C270.59 858.438 271.89 856.865 271.89 854.083C271.89 851.314 270.59 849.741 268.575 849.741C266.56 849.741 265.26 851.314 265.26 854.083C265.26 856.865 266.56 858.438 268.575 858.438ZM268.575 857.346C267.249 857.346 266.456 856.228 266.456 854.083C266.456 851.951 267.249 850.833 268.575 850.833C269.901 850.833 270.694 851.951 270.694 854.083C270.694 856.228 269.901 857.346 268.575 857.346ZM287.88 848.272H286.736V855.552H287.88V852.9H290.025V851.86H287.88V848.272ZM285.345 854.122L281.744 851.548C282.069 850.755 282.303 849.897 282.407 848.961L281.185 848.844C280.938 851.483 279.482 853.576 277.545 854.85L278.39 855.76C279.547 854.928 280.548 853.849 281.263 852.549L284.695 855.019L285.345 854.122ZM283.889 855.76C281.289 855.76 279.768 856.709 279.768 858.282C279.768 859.868 281.289 860.817 283.889 860.817C286.489 860.817 288.01 859.868 288.01 858.282C288.01 856.709 286.489 855.76 283.889 855.76ZM286.424 859.192C285.956 859.556 285.111 859.777 283.889 859.777C282.667 859.777 281.809 859.556 281.354 859.192C281.094 858.958 280.964 858.659 280.964 858.282C280.964 857.918 281.094 857.606 281.354 857.385C281.822 857.034 282.667 856.8 283.889 856.8C285.111 856.8 285.956 857.034 286.424 857.385C286.684 857.606 286.814 857.918 286.814 858.282C286.814 858.659 286.684 858.958 286.424 859.192ZM304.257 848.272H303.113V855.552H304.257V853.03H306.402V851.99H304.257V848.272ZM301.865 854.278L299.083 852.692C299.928 851.756 300.539 850.651 300.76 849.377H294.741V850.417H299.356V850.456C298.719 852.003 296.873 853.654 293.987 854.551L294.572 855.5C295.963 855.019 297.25 854.33 298.303 853.446L301.254 855.136L301.865 854.278ZM300.266 855.76C297.666 855.76 296.145 856.709 296.145 858.282C296.145 859.868 297.666 860.817 300.266 860.817C302.866 860.817 304.387 859.868 304.387 858.282C304.387 856.709 302.866 855.76 300.266 855.76ZM302.801 859.192C302.333 859.556 301.488 859.777 300.266 859.777C299.044 859.777 298.186 859.556 297.731 859.192C297.471 858.958 297.341 858.659 297.341 858.282C297.341 857.918 297.471 857.606 297.731 857.385C298.199 857.034 299.044 856.8 300.266 856.8C301.488 856.8 302.333 857.034 302.801 857.385C303.061 857.606 303.191 857.918 303.191 858.282C303.191 858.659 303.061 858.958 302.801 859.192ZM317.907 857.632V848.272H316.737V857.632H317.907ZM310.822 855.383C312.707 855.383 314.007 854.317 314.007 852.393C314.007 850.482 312.707 849.416 310.822 849.416C308.937 849.416 307.637 850.482 307.637 852.393C307.637 854.317 308.937 855.383 310.822 855.383ZM310.822 854.369C309.652 854.369 308.807 853.732 308.807 852.393C308.807 851.054 309.652 850.43 310.822 850.43C311.992 850.43 312.837 851.054 312.837 852.393C312.837 853.732 311.992 854.369 310.822 854.369ZM318.427 860.557V859.491H311.277V856.397H310.107V860.557H318.427ZM330.322 852.497V851.483H323.341V849.767H330.062V848.727H322.171V852.497H330.322ZM332.207 854.564V853.511H319.857V854.564H332.207ZM330.686 860.687V859.699H323.289V858.594H329.906V855.617H321.898V856.592H328.736V857.645H322.132V860.687H330.686ZM215.67 878.355H213.07V879.395H215.67V885.752H216.84V873.272H215.67V878.355ZM206.245 875.027V876.093H213.473V875.027H206.245ZM212.238 877.081L211.055 877.003L210.717 882.008C210.119 882.06 209.495 882.099 208.858 882.138L208.52 877.003L207.337 877.081L207.74 882.19C207.142 882.203 206.557 882.216 205.985 882.216L206.115 883.282C208.936 883.282 212.199 882.983 214.435 882.502L214.344 881.475C213.603 881.644 212.758 881.774 211.848 881.878L212.238 877.081ZM220.48 873.662V874.702H229.45V873.662H220.48ZM229.398 877.692V876.678H227.5L227.734 875.248L226.551 875.17L226.343 876.678H223.561L223.353 875.17L222.17 875.248L222.404 876.678H220.545V877.692H229.398ZM218.79 879.759H231.14V878.706H218.79V879.759ZM228.839 883.646V880.747H220.818V881.722H227.669V882.71H221.065V885.687H229.619V884.699H222.222V883.646H228.839ZM245.398 878.485H243.357V873.792H242.226V885.297H243.357V879.512H245.398V885.739H246.542V873.272H245.398V878.485ZM240.757 883.217V875.157H235.882V883.217H240.757ZM239.639 876.21V882.164H237V876.21H239.639ZM258.047 880.526C255.746 881.371 252.47 881.865 250.598 881.865V874.897H249.402V882.957C252.483 882.957 255.824 882.424 258.047 881.54V885.752H259.217V873.272H258.047V880.526ZM271.047 878.29H268.252V879.33H271.047V885.752H272.217V873.272H271.047V878.29ZM262.09 875.157V876.223H266.822V876.262C266.25 878.537 264.144 881.085 261.362 882.567L262.064 883.529C263.442 882.723 264.742 881.683 265.795 880.422L268.59 883.308L269.305 882.411L266.445 879.551C267.342 878.264 267.966 876.795 268.2 875.157H262.09ZM285.217 885.752V873.272H284.073V885.752H285.217ZM278.717 880.643C280.641 880.643 281.967 879.525 281.967 877.653C281.967 875.794 280.641 874.676 278.717 874.676C276.793 874.676 275.467 875.794 275.467 877.653C275.467 879.525 276.793 880.643 278.717 880.643ZM278.717 879.616C277.508 879.616 276.637 878.94 276.637 877.653C276.637 876.379 277.508 875.703 278.717 875.703C279.926 875.703 280.797 876.379 280.797 877.653C280.797 878.94 279.926 879.616 278.717 879.616ZM274.362 883.776C278.184 883.776 281.044 883.529 283.527 882.97L283.371 881.956C280.901 882.515 278.132 882.697 274.232 882.697L274.362 883.776ZM301.464 879.187L302.088 878.264L297.096 875.326C297.408 874.858 297.681 874.364 297.876 873.831L296.719 873.532C295.874 875.729 293.625 877.367 291.155 878.277L291.779 879.291C293.469 878.602 295.159 877.588 296.394 876.21L301.464 879.187ZM290.544 880.071V881.137H294.015V885.817H295.146V881.137H298.305V885.817H299.436V881.137H302.894V880.071H290.544ZM313.775 885.739H314.919V873.272H313.775V885.739ZM308.744 878.745C309.108 877.705 309.329 876.561 309.394 875.3H304.402V876.366H308.159V876.405C308.068 877.107 307.912 877.796 307.665 878.459L304.025 878.589L304.064 879.668L307.21 879.486C306.508 880.812 305.403 881.982 303.804 882.853L304.636 883.802C306.274 882.788 307.509 881.449 308.315 879.785H310.798V885.297H311.929V873.792H310.798V878.745H308.744ZM326.424 878.485H323.798C323.629 876.08 322.407 874.741 320.574 874.741C318.598 874.741 317.324 876.301 317.324 879.083C317.324 881.878 318.598 883.438 320.574 883.438C322.446 883.438 323.681 882.047 323.811 879.525H326.424V885.752H327.594V873.272H326.424V878.485ZM320.574 882.346C319.287 882.346 318.507 881.241 318.507 879.083C318.507 876.938 319.287 875.833 320.574 875.833C321.861 875.833 322.641 876.938 322.641 879.083C322.641 881.241 321.861 882.346 320.574 882.346Z" fill="white"/>
<path d="M187.153 380.602C187.739 381.188 188.688 381.188 189.274 380.602L198.82 371.056C199.406 370.471 199.406 369.521 198.82 368.935C198.234 368.349 197.285 368.349 196.699 368.935L188.214 377.42L179.728 368.935C179.142 368.349 178.193 368.349 177.607 368.935C177.021 369.521 177.021 370.471 177.607 371.056L187.153 380.602ZM186.714 331.137V379.542H189.714V331.137H186.714Z" fill="white"/>
<path d="M187.153 574.22C187.739 574.806 188.688 574.806 189.274 574.22L198.82 564.674C199.406 564.089 199.406 563.139 198.82 562.553C198.234 561.967 197.285 561.967 196.699 562.553L188.214 571.038L179.728 562.553C179.142 561.967 178.193 561.967 177.607 562.553C177.021 563.139 177.021 564.089 177.607 564.674L187.153 574.22ZM186.714 524.755V573.16H189.714V524.755H186.714Z" fill="white"/>
<path d="M187.153 780.746C187.739 781.332 188.688 781.332 189.274 780.746L198.82 771.2C199.406 770.614 199.406 769.665 198.82 769.079C198.234 768.493 197.285 768.493 196.699 769.079L188.214 777.564L179.728 769.079C179.142 768.493 178.193 768.493 177.607 769.079C177.021 769.665 177.021 770.614 177.607 771.2L187.153 780.746ZM186.714 731.281V779.685H189.714V731.281H186.714Z" fill="white"/>
<path d="M187.153 979.742C187.739 980.328 188.688 980.328 189.274 979.742L198.82 970.196C199.406 969.611 199.406 968.661 198.82 968.075C198.234 967.489 197.285 967.489 196.699 968.075L188.214 976.56L179.728 968.075C179.142 967.489 178.193 967.489 177.607 968.075C177.021 968.661 177.021 969.611 177.607 970.196L187.153 979.742ZM186.714 930.277V978.682H189.714V930.277H186.714Z" fill="white"/>
<path d="M153.335 73.461H147.135V75.941H153.335V91.1H156.125V61.34H153.335V73.461ZM130.86 65.525V68.067H148.096V65.525H130.86ZM145.151 70.423L142.33 70.237L141.524 82.172C140.098 82.296 138.61 82.389 137.091 82.482L136.285 70.237L133.464 70.423L134.425 82.606C132.999 82.637 131.604 82.668 130.24 82.668L130.55 85.21C137.277 85.21 145.058 84.497 150.39 83.35L150.173 80.901C148.406 81.304 146.391 81.614 144.221 81.862L145.151 70.423ZM164.805 62.27V64.75H186.195V62.27H164.805ZM186.071 71.88V69.462H181.545L182.103 66.052L179.282 65.866L178.786 69.462H172.152L171.656 65.866L168.835 66.052L169.393 69.462H164.96V71.88H186.071ZM160.775 76.809H190.225V74.298H160.775V76.809ZM184.738 86.078V79.165H165.611V81.49H181.948V83.846H166.2V90.945H186.598V88.589H168.959V86.078H184.738ZM217.815 75.445L219.303 73.244L207.399 66.238C208.143 65.122 208.794 63.944 209.259 62.673L206.5 61.96C204.485 67.199 199.122 71.105 193.232 73.275L194.72 75.693C198.75 74.05 202.78 71.632 205.725 68.346L217.815 75.445ZM191.775 77.553V80.095H200.052V91.255H202.749V80.095H210.282V91.255H212.979V80.095H221.225V77.553H191.775ZM226.278 80.343C229.719 79.506 233.811 77.956 237.469 75.724L248.722 80.188L250.179 78.018L239.825 74.143C243.204 71.663 245.932 68.501 246.862 64.75H227.766V67.323H239.825L242.925 67.354V67.447C240.6 72.035 232.757 76.127 224.821 77.801L226.278 80.343ZM222.775 87.566H252.225V84.993H222.775V87.566ZM156.125 133.1V103.34H153.335V133.1H156.125ZM139.54 127.582C144.345 127.582 147.445 123.831 147.445 117.197C147.445 110.594 144.345 106.843 139.54 106.843C134.735 106.843 131.635 110.594 131.635 117.197C131.635 123.831 134.735 127.582 139.54 127.582ZM139.54 124.978C136.378 124.978 134.487 122.312 134.487 117.197C134.487 112.113 136.378 109.447 139.54 109.447C142.702 109.447 144.593 112.113 144.593 117.197C144.593 122.312 142.702 124.978 139.54 124.978ZM182.289 113.353C184.304 112.485 185.42 111.121 185.42 109.292C185.42 105.944 181.669 104.115 175.5 104.115C169.331 104.115 165.58 105.944 165.58 109.292C165.58 111.121 166.696 112.485 168.711 113.353V117.538H160.775V120.08H190.225V117.538H182.289V113.353ZM169.238 107.773C170.323 107.06 172.524 106.595 175.5 106.595C178.476 106.595 180.646 107.029 181.762 107.773C182.32 108.145 182.568 108.672 182.568 109.292C182.568 109.912 182.32 110.439 181.762 110.811C180.677 111.555 178.476 111.989 175.5 111.989C172.524 111.989 170.323 111.555 169.238 110.811C168.68 110.439 168.432 109.912 168.432 109.292C168.432 108.672 168.68 108.145 169.238 107.773ZM171.439 114.159C172.648 114.345 173.981 114.469 175.5 114.469C177.019 114.469 178.352 114.345 179.561 114.159V117.538H171.439V114.159ZM175.5 122.281C169.3 122.281 165.673 124.265 165.673 127.768C165.673 131.271 169.3 133.255 175.5 133.255C181.7 133.255 185.327 131.271 185.327 127.768C185.327 124.265 181.7 122.281 175.5 122.281ZM181.576 129.628C180.46 130.31 178.445 130.775 175.5 130.775C172.555 130.775 170.509 130.341 169.424 129.628C168.835 129.163 168.525 128.512 168.525 127.768C168.525 127.024 168.804 126.373 169.424 125.908C170.509 125.195 172.555 124.761 175.5 124.761C178.445 124.761 180.46 125.226 181.576 125.908C182.196 126.373 182.475 127.024 182.475 127.768C182.475 128.512 182.196 129.163 181.576 129.628ZM216.575 103.34H213.847V121.01H216.575V114.531H221.69V112.051H216.575V103.34ZM205.074 105.51V110.284H196.456V105.51H193.79V119.305H207.74V105.51H205.074ZM196.456 116.98V112.578H205.074V116.98H196.456ZM207.058 121.506C200.858 121.506 197.231 123.707 197.231 127.365C197.231 131.054 200.858 133.255 207.058 133.255C213.258 133.255 216.885 131.054 216.885 127.365C216.885 123.707 213.258 121.506 207.058 121.506ZM213.103 129.442C212.018 130.248 209.972 130.775 207.058 130.775C204.144 130.775 202.098 130.279 201.013 129.442C200.393 128.915 200.083 128.233 200.083 127.365C200.083 126.528 200.393 125.815 201.013 125.319C202.129 124.513 204.144 123.986 207.058 123.986C209.972 123.986 211.987 124.513 213.103 125.319C213.723 125.815 214.033 126.528 214.033 127.365C214.033 128.233 213.723 128.915 213.103 129.442ZM246.335 110.811H239.515V105.355H236.849V110.036H228.076V105.355H225.41V118.995H239.515V113.291H246.335V119.15H249.125V103.34H246.335V110.811ZM228.076 116.67V112.361H236.849V116.67H228.076ZM233.129 124.42V120.855H230.37V132.945H249.125V120.855H246.366V124.42H233.129ZM233.129 130.496V126.776H246.366V130.496H233.129Z" fill="white"/>
<path d="M79.5 98.5H99.5" stroke="white" stroke-width="2"/>
<line x1="282" y1="98" x2="302" y2="98" stroke="white" stroke-width="2"/>
</svg>
