<svg width="375" height="1491" viewBox="0 0 375 1491" fill="none" xmlns="http://www.w3.org/2000/svg">
<rect width="375" height="1491" fill="white"/>
<path d="M77.6163 960.558H74.0163V961.998H77.6163V970.8H79.2363V953.52H77.6163V960.558ZM64.5663 955.95V957.426H74.5743V955.95H64.5663ZM72.8643 958.794L71.2263 958.686L70.7583 965.616C69.9303 965.688 69.0663 965.742 68.1843 965.796L67.7163 958.686L66.0783 958.794L66.6363 965.868C65.8083 965.886 64.9983 965.904 64.2063 965.904L64.3863 967.38C68.2923 967.38 72.8103 966.966 75.9063 966.3L75.7803 964.878C74.7543 965.112 73.5843 965.292 72.3243 965.436L72.8643 958.794ZM97.1463 964.05L98.1003 962.754L90.9543 957.84C91.4223 957.066 91.8183 956.238 92.1063 955.338L90.5043 954.96C89.2443 958.578 86.0223 961.26 82.6023 962.772L83.4843 964.194C85.8963 963.024 88.3263 961.332 90.0723 959.118L97.1463 964.05ZM81.9363 968.748H99.0363V967.254H81.9363V968.748ZM115.236 962.43V953.52H113.616V956.508H107.316V957.948H113.616V962.43H115.236ZM111.42 959.748C108.612 960.36 105.156 960.558 103.284 960.558V954.87H101.646V962.07C105.3 962.07 108.954 961.8 111.618 961.17L111.42 959.748ZM105.93 967.686H115.236V963.33H103.86V964.698H113.616V966.336H104.31V970.8H115.956V969.432H105.93V967.686ZM124.772 955.5V956.94H137.552V955.5H124.772ZM137.462 963.69V962.268H134.636L135.14 958.164L133.502 958.02L133.088 962.268H129.2L128.786 958.02L127.148 958.164L127.652 962.268H124.88V963.69H137.462ZM122.612 968.748H139.712V967.254H122.612V968.748ZM154.292 964.662C151.196 965.58 147.236 966.084 143.744 966.084V962.196H150.494V955.95H141.872V957.426H148.91V960.774H142.124V967.542C147.092 967.542 151.268 966.984 154.292 966.048V970.8H155.912V953.52H154.292V964.662ZM173.912 970.8V953.52H172.292V970.8H173.912ZM168.512 967.29V955.95H160.142V967.29H168.512ZM161.744 957.426H166.91V965.814H161.744V957.426ZM190.292 957.858H186.35C186.008 955.842 184.334 954.744 182.066 954.744C179.492 954.744 177.692 956.148 177.692 958.686C177.692 961.242 179.492 962.646 182.066 962.646C184.406 962.646 186.116 961.458 186.386 959.298H190.292V963.15H191.912V953.52H190.292V957.858ZM182.066 961.242C180.482 961.242 179.294 960.45 179.294 958.686C179.294 956.94 180.482 956.148 182.066 956.148C183.632 956.148 184.82 956.922 184.82 958.686C184.82 960.45 183.632 961.242 182.066 961.242ZM191.912 970.62V964.05H181.022V970.62H191.912ZM190.328 965.454V969.198H182.606V965.454H190.328ZM214.408 961.71L215.272 960.432L208.36 956.364C208.792 955.716 209.17 955.032 209.44 954.294L207.838 953.88C206.668 956.922 203.554 959.19 200.134 960.45L200.998 961.854C203.338 960.9 205.678 959.496 207.388 957.588L214.408 961.71ZM199.288 962.934V964.41H204.094V970.89H205.66V964.41H210.034V970.89H211.6V964.41H216.388V962.934H199.288ZM231.454 970.782H233.038V953.52H231.454V970.782ZM224.488 961.098C224.992 959.658 225.298 958.074 225.388 956.328H218.476V957.804H223.678V957.858C223.552 958.83 223.336 959.784 222.994 960.702L217.954 960.882L218.008 962.376L222.364 962.124C221.392 963.96 219.862 965.58 217.648 966.786L218.8 968.1C221.068 966.696 222.778 964.842 223.894 962.538H227.332V970.17H228.898V954.24H227.332V961.098H224.488ZM248.968 960.738H245.332C245.098 957.408 243.406 955.554 240.868 955.554C238.132 955.554 236.368 957.714 236.368 961.566C236.368 965.436 238.132 967.596 240.868 967.596C243.46 967.596 245.17 965.67 245.35 962.178H248.968V970.8H250.588V953.52H248.968V960.738ZM240.868 966.084C239.086 966.084 238.006 964.554 238.006 961.566C238.006 958.596 239.086 957.066 240.868 957.066C242.65 957.066 243.73 958.596 243.73 961.566C243.73 964.554 242.65 966.084 240.868 966.084ZM271.644 959.658H266.694V961.098H271.644V970.8H273.264V953.52H271.644V959.658ZM263.13 955.518C262.878 960.324 260.97 964.122 258.324 966.57L259.602 967.722C261.096 966.264 262.356 964.464 263.274 962.304L268.278 967.2L269.268 966.012L263.832 960.828C264.354 959.244 264.678 957.48 264.804 955.572L263.13 955.518ZM291.264 970.8V953.52H289.644V970.8H291.264ZM285.864 967.2V955.68H284.28V960.018H279.096V955.68H277.494V967.2H285.864ZM279.096 961.458H284.28V965.742H279.096V961.458ZM309.174 964.05L310.128 962.754L302.982 957.84C303.45 957.066 303.846 956.238 304.134 955.338L302.532 954.96C301.272 958.578 298.05 961.26 294.63 962.772L295.512 964.194C297.924 963.024 300.354 961.332 302.1 959.118L309.174 964.05ZM293.964 968.748H311.064V967.254H293.964V968.748Z" fill="black"/>
<g filter="url(#filter0_d)">
<path d="M1 1188V1085H230L151 1188H1Z" fill="#E5E5E5"/>
</g>
<path d="M19.8028 1116.68V1125.32H20.8828V1116.68H19.8028ZM18.4228 1122.66L14.9788 1120.06C15.2908 1119.27 15.5068 1118.42 15.6148 1117.5L14.4748 1117.41C14.2588 1119.98 12.8428 1122.08 11.0428 1123.29L11.8348 1124.13C12.9268 1123.33 13.8628 1122.27 14.5468 1121L17.8108 1123.5L18.4228 1122.66ZM14.7628 1124.18H13.6828V1128.02H21.3628V1127.04H14.7628V1124.18ZM32.2828 1116.68H31.2268V1122.74H32.2828V1120.77H34.2628V1119.81H32.2828V1116.68ZM27.8428 1117.46V1119.16H24.4828V1117.46H23.4628V1122.5H28.8628V1117.46H27.8428ZM24.4828 1121.61V1120.05H27.8428V1121.61H24.4828ZM32.2828 1126.17V1123.34H24.7468V1124.25H31.2028V1125.3H25.0468V1128.2H32.7628V1127.29H26.1148V1126.17H32.2828ZM47.88 1122.14L48.456 1121.29L43.848 1118.58C44.136 1118.14 44.388 1117.69 44.568 1117.2L43.5 1116.92C42.72 1118.95 40.644 1120.46 38.364 1121.3L38.94 1122.24C40.5 1121.6 42.06 1120.66 43.2 1119.39L47.88 1122.14ZM37.8 1122.96V1123.94H42.96V1128.26H44.04V1123.94H49.2V1122.96H37.8ZM60 1125.32V1116.68H58.92V1119.45H55.62V1120.41H58.92V1125.32H60ZM57.24 1122.9L53.736 1120.3C54.06 1119.45 54.288 1118.52 54.384 1117.5L53.28 1117.41C53.04 1120.05 51.852 1122.06 50.04 1123.45L50.832 1124.25C51.852 1123.42 52.704 1122.43 53.328 1121.22L56.676 1123.7L57.24 1122.9ZM53.88 1124.18H52.8V1128.02H60.48V1127.04H53.88V1124.18ZM70.92 1119.51H68.292C68.064 1118.17 66.948 1117.44 65.436 1117.44C63.72 1117.44 62.52 1118.36 62.52 1120.04C62.52 1121.72 63.72 1122.64 65.436 1122.64C66.984 1122.64 68.124 1121.88 68.316 1120.47H70.92V1122.68H72V1116.68H70.92V1119.51ZM65.436 1121.71C64.38 1121.71 63.588 1121.19 63.588 1120.04C63.588 1118.89 64.38 1118.37 65.436 1118.37C66.48 1118.37 67.272 1118.88 67.272 1120.03C67.272 1121.19 66.48 1121.71 65.436 1121.71ZM65.808 1124.78V1123.34H64.74V1128.14H72V1123.34H70.932V1124.78H65.808ZM65.808 1127.18V1125.69H70.932V1127.18H65.808ZM87.0692 1123.34L87.6932 1122.48L82.9772 1119.33C83.2772 1118.85 83.5172 1118.34 83.7092 1117.78L82.6292 1117.52C81.8012 1119.82 79.6652 1121.53 77.3612 1122.49L77.9372 1123.45C79.5692 1122.7 81.2012 1121.62 82.3772 1120.17L87.0692 1123.34ZM83.1572 1122.56H82.0772V1125.84H76.9172V1126.83H88.3172V1125.84H83.1572V1122.56ZM98.5172 1116.68H97.4612V1123.4H98.5172V1120.95H100.497V1119.99H98.5172V1116.68ZM96.1772 1122.08L92.8532 1119.7C93.1532 1118.97 93.3692 1118.18 93.4652 1117.32L92.3372 1117.21C92.1092 1119.64 90.7652 1121.58 88.9772 1122.75L89.7572 1123.59C90.8252 1122.82 91.7492 1121.83 92.4092 1120.63L95.5772 1122.91L96.1772 1122.08ZM94.8332 1123.59C92.4332 1123.59 91.0292 1124.47 91.0292 1125.92C91.0292 1127.38 92.4332 1128.26 94.8332 1128.26C97.2332 1128.26 98.6372 1127.38 98.6372 1125.92C98.6372 1124.47 97.2332 1123.59 94.8332 1123.59ZM97.1732 1126.76C96.7412 1127.1 95.9612 1127.3 94.8332 1127.3C93.7052 1127.3 92.9132 1127.1 92.4932 1126.76C92.2532 1126.54 92.1332 1126.27 92.1332 1125.92C92.1332 1125.58 92.2532 1125.3 92.4932 1125.09C92.9252 1124.77 93.7052 1124.55 94.8332 1124.55C95.9612 1124.55 96.7412 1124.77 97.1732 1125.09C97.4132 1125.3 97.5332 1125.58 97.5332 1125.92C97.5332 1126.27 97.4132 1126.54 97.1732 1126.76ZM110.025 1121.12C110.205 1119.87 110.301 1118.71 110.325 1117.23H102.753V1118.22H109.233C109.185 1119.14 109.113 1120.1 108.921 1121.06L110.025 1121.12ZM106.617 1119.26H105.537V1121.82H100.917V1122.8H112.317V1121.82H106.617V1119.26ZM106.617 1123.77C104.217 1123.77 102.813 1124.6 102.813 1126.02C102.813 1127.43 104.217 1128.26 106.617 1128.26C109.017 1128.26 110.421 1127.43 110.421 1126.02C110.421 1124.6 109.017 1123.77 106.617 1123.77ZM108.957 1126.8C108.537 1127.11 107.757 1127.3 106.617 1127.3C105.477 1127.3 104.697 1127.11 104.277 1126.8C104.037 1126.6 103.917 1126.34 103.917 1126.02C103.917 1125.69 104.025 1125.43 104.277 1125.24C104.697 1124.92 105.477 1124.73 106.617 1124.73C107.757 1124.73 108.537 1124.92 108.957 1125.24C109.209 1125.43 109.317 1125.69 109.317 1126.02C109.317 1126.34 109.197 1126.6 108.957 1126.8ZM123.117 1125.32V1116.68H122.037V1125.32H123.117ZM116.577 1123.24C118.317 1123.24 119.517 1122.26 119.517 1120.48C119.517 1118.72 118.317 1117.74 116.577 1117.74C114.837 1117.74 113.637 1118.72 113.637 1120.48C113.637 1122.26 114.837 1123.24 116.577 1123.24ZM116.577 1122.31C115.497 1122.31 114.717 1121.72 114.717 1120.48C114.717 1119.25 115.497 1118.67 116.577 1118.67C117.657 1118.67 118.437 1119.25 118.437 1120.48C118.437 1121.72 117.657 1122.31 116.577 1122.31ZM123.597 1128.02V1127.04H116.997V1124.18H115.917V1128.02H123.597ZM133.137 1117.1V1118.42H128.097V1117.1H127.017V1121.48H134.217V1117.1H133.137ZM128.097 1120.54V1119.37H133.137V1120.54H128.097ZM124.917 1123.46H130.233V1125.97H131.253V1123.46H136.317V1122.48H124.917V1123.46ZM126.981 1124.42V1128.02H134.613V1127.04H127.989V1124.42H126.981ZM146.577 1120.58V1119.64H140.133V1118.06H146.337V1117.1H139.053V1120.58H146.577ZM148.317 1122.49V1121.52H136.917V1122.49H148.317ZM146.913 1128.14V1127.23H140.085V1126.21H146.193V1123.46H138.801V1124.36H145.113V1125.33H139.017V1128.14H146.913ZM158.361 1128.19H159.417V1116.68H158.361V1128.19ZM154.233 1121.55C154.101 1119.39 153.165 1118.28 151.773 1118.28C150.249 1118.28 149.277 1119.6 149.277 1122.14C149.277 1124.68 150.249 1126 151.773 1126C153.213 1126 154.161 1124.82 154.245 1122.51H155.613V1127.78H156.657V1117.16H155.613V1121.55H154.233ZM151.773 1125C150.897 1125 150.357 1124.11 150.357 1122.14C150.357 1120.17 150.897 1119.28 151.773 1119.28C152.637 1119.28 153.177 1120.17 153.177 1122.14C153.177 1124.11 152.637 1125 151.773 1125ZM170.361 1128.19H171.417V1116.68H170.361V1128.19ZM165.561 1121.73C165.921 1120.8 166.173 1119.76 166.269 1118.66H161.577V1119.63H165.057V1119.67C164.745 1121.71 163.509 1123.96 161.037 1125.42L161.829 1126.29C163.209 1125.42 164.349 1124.2 165.129 1122.69H167.613V1127.78H168.657V1117.16H167.613V1121.73H165.561ZM182.481 1121.25V1120.27H176.121V1117.1H175.041V1121.25H182.481ZM184.317 1123.6V1122.61H172.917V1123.6H184.317ZM182.589 1128.02V1127.04H176.217V1124.54H175.137V1128.02H182.589ZM45.1934 1143.16V1144.1H50.6894V1143.16H45.1934ZM43.1414 1145.15V1146.12H52.7414V1145.15H43.1414ZM44.6534 1148.66C44.6534 1149.8 45.9734 1150.42 47.9534 1150.42C49.9334 1150.42 51.2534 1149.8 51.2534 1148.66C51.2534 1147.5 49.9334 1146.88 47.9534 1146.88C45.9734 1146.88 44.6534 1147.5 44.6534 1148.66ZM50.1854 1148.66C50.1854 1148.87 50.0774 1149.03 49.8494 1149.17C49.5134 1149.4 48.9134 1149.51 47.9534 1149.51C47.0054 1149.51 46.3934 1149.4 46.0574 1149.17C45.8294 1149.03 45.7214 1148.87 45.7214 1148.66C45.7214 1148.44 45.8294 1148.27 46.0574 1148.13C46.3934 1147.91 47.0054 1147.8 47.9534 1147.8C48.9134 1147.8 49.5134 1147.91 49.8494 1148.13C50.0774 1148.27 50.1854 1148.44 50.1854 1148.66ZM50.6174 1150.36H49.5974V1151.84H46.2974V1150.36H45.2774V1151.84H42.2414V1152.83H53.6414V1151.84H50.6174V1150.36ZM63.8414 1147.79V1142.68H62.7854V1154.2H63.8414V1148.75H65.8214V1147.79H63.8414ZM60.4694 1149.62C60.7934 1148 60.9374 1146.23 60.9374 1144.36H54.9614V1145.36H59.8814C59.8814 1146.5 59.7494 1148.16 59.3894 1149.51L60.4694 1149.62ZM58.0694 1147.48H57.0134V1151.2C56.1854 1151.25 55.2974 1151.26 54.3014 1151.26L54.4214 1152.26C57.7334 1152.26 60.1214 1152.02 62.2814 1151.44L62.1254 1150.5C60.8894 1150.83 59.5934 1151.03 58.0694 1151.14V1147.48ZM75.3614 1145.69H72.7214V1146.65H75.3614V1149.7H76.4414V1142.68H75.3614V1145.69ZM73.6934 1148.68L71.1134 1147C71.9054 1146.08 72.4694 1145 72.6734 1143.76H67.1054V1144.73H71.3774V1144.77C70.8014 1146.3 69.0614 1147.98 66.4214 1148.91L66.9854 1149.78C68.2574 1149.29 69.4574 1148.6 70.4174 1147.72L73.1054 1149.47L73.6934 1148.68ZM75.3374 1151.28V1154.22H76.4414V1150.3H68.8814V1151.28H75.3374ZM88.4414 1151.32V1142.68H87.3614V1151.32H88.4414ZM81.9014 1149.24C83.6414 1149.24 84.8414 1148.26 84.8414 1146.48C84.8414 1144.72 83.6414 1143.74 81.9014 1143.74C80.1614 1143.74 78.9614 1144.72 78.9614 1146.48C78.9614 1148.26 80.1614 1149.24 81.9014 1149.24ZM81.9014 1148.31C80.8214 1148.31 80.0414 1147.72 80.0414 1146.48C80.0414 1145.25 80.8214 1144.67 81.9014 1144.67C82.9814 1144.67 83.7614 1145.25 83.7614 1146.48C83.7614 1147.72 82.9814 1148.31 81.9014 1148.31ZM88.9214 1154.02V1153.04H82.3214V1150.18H81.2414V1154.02H88.9214ZM102.347 1150.18C102.647 1148.22 102.815 1146.29 102.863 1144.01H94.9786V1145.01H101.747C101.687 1146.64 101.567 1148.38 101.255 1150.11L102.347 1150.18ZM98.9386 1147.48H97.8586V1151.84H93.3586V1152.83H104.759V1151.84H98.9386V1147.48ZM114.803 1145.75H112.859V1142.98H111.815V1149.58H112.859V1146.7H114.803V1149.58H115.859V1142.68H114.803V1145.75ZM106.079 1144V1144.95H109.511V1144.98C109.127 1146.46 107.903 1148.09 105.539 1149.04L106.187 1149.94C108.563 1148.88 110.483 1146.88 110.783 1144H106.079ZM114.755 1151.16V1154.22H115.859V1150.18H108.179V1151.16H114.755ZM123.059 1148.01C125.519 1148.01 127.019 1147.08 127.019 1145.58C127.019 1144.08 125.519 1143.16 123.059 1143.16C120.599 1143.16 119.099 1144.08 119.099 1145.58C119.099 1147.08 120.599 1148.01 123.059 1148.01ZM120.551 1144.76C120.995 1144.36 121.859 1144.12 123.059 1144.12C124.259 1144.12 125.111 1144.36 125.567 1144.76C125.807 1144.97 125.915 1145.26 125.915 1145.58C125.915 1145.91 125.795 1146.18 125.567 1146.41C125.123 1146.82 124.259 1147.05 123.059 1147.05C121.859 1147.05 120.995 1146.82 120.551 1146.41C120.311 1146.18 120.203 1145.91 120.203 1145.58C120.203 1145.26 120.311 1144.97 120.551 1144.76ZM117.359 1149.14V1150.12H120.563V1154.26H121.607V1150.12H124.523V1154.26H125.567V1150.12H128.759V1149.14H117.359ZM139.559 1148.68V1142.68H138.479V1148.68H139.559ZM133.019 1148.64C134.747 1148.64 135.959 1147.72 135.959 1146.04C135.959 1144.36 134.747 1143.44 133.019 1143.44C131.291 1143.44 130.079 1144.36 130.079 1146.04C130.079 1147.72 131.291 1148.64 133.019 1148.64ZM133.019 1147.71C131.951 1147.71 131.159 1147.18 131.159 1146.04C131.159 1144.89 131.951 1144.37 133.019 1144.37C134.087 1144.37 134.891 1144.89 134.891 1146.03C134.891 1147.18 134.087 1147.71 133.019 1147.71ZM139.559 1154.14V1149.34H138.491V1150.78H133.367V1149.34H132.299V1154.14H139.559ZM133.367 1151.69H138.491V1153.18H133.367V1151.69ZM147.059 1146.75C149.447 1146.75 150.899 1146.08 150.899 1144.8C150.899 1143.53 149.447 1142.86 147.059 1142.86C144.671 1142.86 143.219 1143.53 143.219 1144.8C143.219 1146.08 144.671 1146.75 147.059 1146.75ZM147.059 1145.79C145.907 1145.79 145.055 1145.63 144.635 1145.37C144.419 1145.22 144.323 1145.03 144.323 1144.8C144.323 1144.58 144.407 1144.38 144.635 1144.24C145.055 1143.99 145.907 1143.82 147.059 1143.82C148.211 1143.82 149.051 1143.99 149.483 1144.24C149.711 1144.38 149.795 1144.58 149.795 1144.8C149.795 1145.03 149.699 1145.22 149.483 1145.37C149.063 1145.63 148.211 1145.79 147.059 1145.79ZM152.759 1148.49V1147.52H141.359V1148.49H152.759ZM151.355 1154.14V1153.23H144.527V1152.21H150.635V1149.46H143.243V1150.36H149.555V1151.33H143.459V1154.14H151.355Z" fill="black"/>
<path d="M130.4 1024.24H122.4V1027.44H130.4V1047H134V1008.6H130.4V1024.24ZM101.4 1014V1017.28H123.64V1014H101.4ZM119.84 1020.32L116.2 1020.08L115.16 1035.48C113.32 1035.64 111.4 1035.76 109.44 1035.88L108.4 1020.08L104.76 1020.32L106 1036.04C104.16 1036.08 102.36 1036.12 100.6 1036.12L101 1039.4C109.68 1039.4 119.72 1038.48 126.6 1037L126.32 1033.84C124.04 1034.36 121.44 1034.76 118.64 1035.08L119.84 1020.32ZM145.2 1009.8V1013H172.8V1009.8H145.2ZM172.64 1022.2V1019.08H166.8L167.52 1014.68L163.88 1014.44L163.24 1019.08H154.68L154.04 1014.44L150.4 1014.68L151.12 1019.08H145.4V1022.2H172.64ZM140 1028.56H178V1025.32H140V1028.56ZM170.92 1040.52V1031.6H146.24V1034.6H167.32V1037.64H147V1046.8H173.32V1043.76H150.56V1040.52H170.92ZM213.6 1026.8L215.52 1023.96L200.16 1014.92C201.12 1013.48 201.96 1011.96 202.56 1010.32L199 1009.4C196.4 1016.16 189.48 1021.2 181.88 1024L183.8 1027.12C189 1025 194.2 1021.88 198 1017.64L213.6 1026.8ZM180 1029.52V1032.8H190.68V1047.2H194.16V1032.8H203.88V1047.2H207.36V1032.8H218V1029.52H180ZM224.52 1033.12C228.96 1032.04 234.24 1030.04 238.96 1027.16L253.48 1032.92L255.36 1030.12L242 1025.12C246.36 1021.92 249.88 1017.84 251.08 1013H226.44V1016.32H242L246 1016.36V1016.48C243 1022.4 232.88 1027.68 222.64 1029.84L224.52 1033.12ZM220 1042.44H258V1039.12H220V1042.44Z" fill="#3E1F4B"/>
<path d="M272.974 1034.86V1033.46H263.964V1028.97H262.434V1034.86H272.974ZM275.575 1038.19V1036.78H259.425V1038.19H275.575ZM273.127 1044.45V1043.05H264.1V1039.51H262.57V1044.45H273.127Z" fill="black"/>
<g filter="url(#filter1_d)">
<path d="M375 1105V1208H146L225 1105H375Z" fill="#3E1F4B"/>
</g>
<path d="M254.88 1142.14L255.456 1141.29L250.848 1138.58C251.136 1138.14 251.388 1137.69 251.568 1137.2L250.5 1136.92C249.72 1138.95 247.644 1140.46 245.364 1141.3L245.94 1142.24C247.5 1141.6 249.06 1140.66 250.2 1139.39L254.88 1142.14ZM244.8 1142.96V1143.94H248.004V1148.26H249.048V1143.94H251.964V1148.26H253.008V1143.94H256.2V1142.96H244.8ZM258.156 1144.04C259.488 1143.71 261.072 1143.11 262.488 1142.25L266.844 1143.98L267.408 1143.14L263.4 1141.64C264.708 1140.68 265.764 1139.45 266.124 1138H258.732V1139H263.4L264.6 1139.01V1139.04C263.7 1140.82 260.664 1142.4 257.592 1143.05L258.156 1144.04ZM256.8 1146.83H268.2V1145.84H256.8V1146.83ZM275.04 1143.36C277.224 1143.21 278.52 1142.09 278.52 1140.51C278.52 1138.8 277.008 1137.64 274.5 1137.64C272.004 1137.64 270.48 1138.8 270.48 1140.51C270.48 1142.09 271.788 1143.21 273.96 1143.36V1145.84H268.8V1146.83H280.2V1145.84H275.04V1143.36ZM271.968 1141.6C271.716 1141.29 271.584 1140.93 271.584 1140.51C271.584 1140.1 271.704 1139.73 271.968 1139.43C272.412 1138.9 273.288 1138.6 274.5 1138.6C275.712 1138.6 276.564 1138.91 277.032 1139.43C277.296 1139.73 277.416 1140.1 277.416 1140.51C277.416 1140.93 277.284 1141.29 277.032 1141.6C276.588 1142.13 275.712 1142.43 274.5 1142.43C273.288 1142.43 272.412 1142.13 271.968 1141.6ZM289.92 1140.71H285.72V1141.67H289.92V1148.2H291V1136.68H289.92V1140.71ZM283.032 1138.18H281.94V1145.56C284.448 1145.56 286.86 1145.36 288.648 1144.9L288.516 1143.95C286.62 1144.4 284.352 1144.55 283.032 1144.55V1138.18ZM302.244 1148.19H303.3V1136.68H302.244V1148.19ZM298.116 1141.55C297.984 1139.39 297.048 1138.28 295.656 1138.28C294.132 1138.28 293.16 1139.6 293.16 1142.14C293.16 1144.68 294.132 1146 295.656 1146C297.096 1146 298.044 1144.82 298.128 1142.51H299.496V1147.78H300.54V1137.16H299.496V1141.55H298.116ZM295.656 1145C294.78 1145 294.24 1144.11 294.24 1142.14C294.24 1140.17 294.78 1139.28 295.656 1139.28C296.52 1139.28 297.06 1140.17 297.06 1142.14C297.06 1144.11 296.52 1145 295.656 1145ZM314.244 1148.19H315.3V1136.68H314.244V1148.19ZM309.444 1141.73C309.804 1140.8 310.056 1139.76 310.152 1138.66H305.46V1139.63H308.94V1139.67C308.628 1141.71 307.392 1143.96 304.92 1145.42L305.712 1146.29C307.092 1145.42 308.232 1144.2 309.012 1142.69H311.496V1147.78H312.54V1137.16H311.496V1141.73H309.444ZM326.364 1141.25V1140.27H320.004V1137.1H318.924V1141.25H326.364ZM328.2 1143.6V1142.61H316.8V1143.6H328.2ZM326.472 1148.02V1147.04H320.1V1144.54H319.02V1148.02H326.472ZM220.827 1174.2H221.883V1162.68H220.827V1174.2ZM213.879 1163.58V1164.53H218.067V1163.58H213.879ZM212.727 1170.05C214.083 1169.81 215.355 1169.36 216.375 1168.73L219.111 1169.84L219.591 1169.02L217.263 1168.06C217.983 1167.4 218.487 1166.59 218.679 1165.64H212.919V1166.59H216.075L217.275 1166.56V1166.59C216.579 1167.66 214.779 1168.72 212.223 1169.17L212.727 1170.05ZM216.711 1169.7H215.655V1171.52C214.491 1171.6 213.207 1171.62 211.743 1171.62L211.863 1172.62C215.391 1172.62 218.031 1172.39 220.323 1171.87L220.179 1170.94C219.111 1171.18 217.983 1171.34 216.711 1171.45V1169.7ZM232.671 1170.18C232.971 1168.22 233.139 1166.29 233.187 1164.01H225.303V1165.01H232.071C232.011 1166.64 231.891 1168.38 231.579 1170.11L232.671 1170.18ZM229.263 1167.48H228.183V1171.84H223.683V1172.83H235.083V1171.84H229.263V1167.48ZM245.883 1174.2V1162.68H244.827V1174.2H245.883ZM239.883 1169.48C241.659 1169.48 242.883 1168.45 242.883 1166.72C242.883 1165.01 241.659 1163.98 239.883 1163.98C238.107 1163.98 236.883 1165.01 236.883 1166.72C236.883 1168.45 238.107 1169.48 239.883 1169.48ZM239.883 1168.54C238.767 1168.54 237.963 1167.91 237.963 1166.72C237.963 1165.55 238.767 1164.92 239.883 1164.92C240.999 1164.92 241.803 1165.55 241.803 1166.72C241.803 1167.91 240.999 1168.54 239.883 1168.54ZM235.863 1172.38C239.391 1172.38 242.031 1172.15 244.323 1171.63L244.179 1170.7C241.899 1171.21 239.343 1171.38 235.743 1171.38L235.863 1172.38ZM260.88 1168.14L261.456 1167.29L256.848 1164.58C257.136 1164.14 257.388 1163.69 257.568 1163.2L256.5 1162.92C255.72 1164.95 253.644 1166.46 251.364 1167.3L251.94 1168.24C253.5 1167.6 255.06 1166.66 256.2 1165.39L260.88 1168.14ZM250.8 1168.96V1169.94H254.004V1174.26H255.048V1169.94H257.964V1174.26H259.008V1169.94H262.2V1168.96H250.8ZM272.244 1174.19H273.3V1162.68H272.244V1174.19ZM267.6 1167.73C267.936 1166.77 268.14 1165.72 268.2 1164.55H263.592V1165.54H267.06V1165.57C266.976 1166.22 266.832 1166.86 266.604 1167.47L263.244 1167.59L263.28 1168.58L266.184 1168.42C265.536 1169.64 264.516 1170.72 263.04 1171.52L263.808 1172.4C265.32 1171.46 266.46 1170.23 267.204 1168.69H269.496V1173.78H270.54V1163.16H269.496V1167.73H267.6ZM283.92 1167.49H281.496C281.34 1165.27 280.212 1164.04 278.52 1164.04C276.696 1164.04 275.52 1165.48 275.52 1168.04C275.52 1170.62 276.696 1172.06 278.52 1172.06C280.248 1172.06 281.388 1170.78 281.508 1168.45H283.92V1174.2H285V1162.68H283.92V1167.49ZM278.52 1171.06C277.332 1171.06 276.612 1170.04 276.612 1168.04C276.612 1166.06 277.332 1165.04 278.52 1165.04C279.708 1165.04 280.428 1166.06 280.428 1168.04C280.428 1170.04 279.708 1171.06 278.52 1171.06ZM296.628 1167.24V1166.35H289.908V1165.55H296.076V1163.04H288.72V1163.94H295.044V1164.67H288.864V1167.24H296.628ZM298.2 1169V1168.06H286.8V1169H298.2ZM296.796 1174.14V1173.24H289.98V1172.38H296.076V1169.82H288.672V1170.71H294.996V1171.52H288.912V1174.14H296.796ZM311.361 1174.19H312.417V1162.68H311.361V1174.19ZM306.717 1167.55V1168.51H308.613V1173.78H309.657V1163.16H308.613V1167.55H306.717ZM302.481 1164.54V1165.52H305.853V1165.56C305.361 1167.67 304.053 1169.87 301.917 1171.39L302.637 1172.17C303.621 1171.4 304.509 1170.48 305.217 1169.39L307.017 1171.93L307.689 1171.13L305.745 1168.49C306.357 1167.32 306.789 1166.02 306.993 1164.54H302.481ZM323.025 1167.12C323.205 1165.87 323.301 1164.71 323.325 1163.23H315.753V1164.22H322.233C322.185 1165.14 322.113 1166.1 321.921 1167.06L323.025 1167.12ZM319.617 1165.26H318.537V1167.82H313.917V1168.8H325.317V1167.82H319.617V1165.26ZM319.617 1169.77C317.217 1169.77 315.813 1170.6 315.813 1172.02C315.813 1173.43 317.217 1174.26 319.617 1174.26C322.017 1174.26 323.421 1173.43 323.421 1172.02C323.421 1170.6 322.017 1169.77 319.617 1169.77ZM321.957 1172.8C321.537 1173.11 320.757 1173.3 319.617 1173.3C318.477 1173.3 317.697 1173.11 317.277 1172.8C317.037 1172.6 316.917 1172.34 316.917 1172.02C316.917 1171.69 317.025 1171.43 317.277 1171.24C317.697 1170.92 318.477 1170.73 319.617 1170.73C320.757 1170.73 321.537 1170.92 321.957 1171.24C322.209 1171.43 322.317 1171.69 322.317 1172.02C322.317 1172.34 322.197 1172.6 321.957 1172.8ZM335.517 1166.65V1162.68H334.461V1169.28H335.517V1167.61H337.497V1166.65H335.517ZM327.417 1162.92V1163.8H332.001V1162.92H327.417ZM326.037 1164.68V1165.6H333.117V1164.68H326.037ZM332.337 1167.9C332.337 1166.9 331.317 1166.26 329.697 1166.26C328.089 1166.26 327.069 1166.9 327.069 1167.9C327.069 1168.9 328.089 1169.54 329.697 1169.54C331.317 1169.54 332.337 1168.9 332.337 1167.9ZM328.077 1167.9C328.077 1167.4 328.677 1167.07 329.697 1167.07C330.729 1167.07 331.329 1167.4 331.329 1167.9C331.329 1168.4 330.729 1168.73 329.697 1168.73C328.677 1168.73 328.077 1168.4 328.077 1167.9ZM329.385 1171.1V1170.06H328.317V1174.14H335.517V1169.94H334.449V1171.1H329.385ZM329.385 1173.19V1171.99H334.449V1173.19H329.385ZM347.037 1169.38C344.913 1170.16 341.889 1170.61 340.161 1170.61V1164.18H339.057V1171.62C341.901 1171.62 344.985 1171.13 347.037 1170.31V1174.2H348.117V1162.68H347.037V1169.38ZM359.517 1167.79V1162.68H358.461V1169.75C356.589 1170.38 353.769 1170.74 351.921 1170.74L351.897 1165.28H356.505V1164.3H350.817V1171.74C353.745 1171.74 356.649 1171.36 358.461 1170.68V1174.2H359.517V1168.75H361.497V1167.79H359.517Z" fill="white"/>
<path d="M375 1H-1V481L375 294.781V1Z" fill="white"/>
<path d="M-1 838H375V288L-1 501.376V838Z" fill="#3E1F4B"/>
<path d="M52.975 132.925L53.695 131.86L47.935 128.47C48.295 127.93 48.61 127.36 48.835 126.745L47.5 126.4C46.525 128.935 43.93 130.825 41.08 131.875L41.8 133.045C43.75 132.25 45.7 131.08 47.125 129.49L52.975 132.925ZM40.375 133.945V135.175H44.38V140.575H45.685V135.175H49.33V140.575H50.635V135.175H54.625V133.945H40.375ZM57.07 135.295C58.735 134.89 60.715 134.14 62.485 133.06L67.93 135.22L68.635 134.17L63.625 132.295C65.26 131.095 66.58 129.565 67.03 127.75H57.79V128.995H63.625L65.125 129.01V129.055C64 131.275 60.205 133.255 56.365 134.065L57.07 135.295ZM55.375 138.79H69.625V137.545H55.375V138.79ZM78.175 134.455C80.905 134.26 82.525 132.865 82.525 130.885C82.525 128.755 80.635 127.3 77.5 127.3C74.38 127.3 72.475 128.755 72.475 130.885C72.475 132.865 74.11 134.26 76.825 134.455V137.545H70.375V138.79H84.625V137.545H78.175V134.455ZM74.335 132.25C74.02 131.86 73.855 131.41 73.855 130.885C73.855 130.375 74.005 129.91 74.335 129.535C74.89 128.875 75.985 128.5 77.5 128.5C79.015 128.5 80.08 128.89 80.665 129.535C80.995 129.91 81.145 130.375 81.145 130.885C81.145 131.41 80.98 131.86 80.665 132.25C80.11 132.91 79.015 133.285 77.5 133.285C75.985 133.285 74.89 132.91 74.335 132.25ZM96.775 131.14H91.525V132.34H96.775V140.5H98.125V126.1H96.775V131.14ZM88.165 127.975H86.8V137.2C89.935 137.2 92.95 136.945 95.185 136.375L95.02 135.19C92.65 135.745 89.815 135.94 88.165 135.94V127.975ZM113.125 140.5V126.1H111.805V140.5H113.125ZM105.625 134.605C107.845 134.605 109.375 133.315 109.375 131.155C109.375 129.01 107.845 127.72 105.625 127.72C103.405 127.72 101.875 129.01 101.875 131.155C101.875 133.315 103.405 134.605 105.625 134.605ZM105.625 133.42C104.23 133.42 103.225 132.64 103.225 131.155C103.225 129.685 104.23 128.905 105.625 128.905C107.02 128.905 108.025 129.685 108.025 131.155C108.025 132.64 107.02 133.42 105.625 133.42ZM100.6 138.22C105.01 138.22 108.31 137.935 111.175 137.29L110.995 136.12C108.145 136.765 104.95 136.975 100.45 136.975L100.6 138.22ZM121.896 126.775V131.875H130.896V126.775H121.896ZM123.246 130.705V127.945H129.546V130.705H123.246ZM119.271 134.425H125.916V137.71H127.191V134.425H133.521V133.195H119.271V134.425ZM121.851 135.775V140.275H131.391V139.045H123.111V135.775H121.851ZM150.168 126.1H148.848V134.2H150.168V131.29H152.643V130.09H150.168V126.1ZM146.118 130.405C146.118 128.29 144.603 127.12 142.443 127.12C140.283 127.12 138.768 128.29 138.768 130.405C138.768 132.535 140.283 133.705 142.443 133.705C144.603 133.705 146.118 132.535 146.118 130.405ZM140.118 130.405C140.118 128.95 141.108 128.29 142.443 128.29C143.778 128.29 144.768 128.95 144.768 130.405C144.768 131.86 143.778 132.535 142.443 132.535C141.108 132.535 140.118 131.86 140.118 130.405ZM150.618 136.105V134.95H140.718V136.105H150.618ZM147.438 136.735L147.138 139.225H144.198L143.898 136.735L142.533 136.825L142.908 139.225H140.343V140.35H150.993V139.225H148.428L148.803 136.825L147.438 136.735ZM165.168 132.49V126.1H163.848V140.5H165.168V133.69H167.643V132.49H165.168ZM153.558 129.52H156.363V129.565C156.183 131.935 155.058 134.455 152.943 136.345L154.068 137.2C156.273 134.95 157.533 132.175 157.788 128.29H153.558V129.52ZM160.728 129.52V129.565C160.503 132.625 159.558 135.67 157.083 138.19L158.328 139C160.788 136.27 161.928 132.805 162.198 128.29H158.478V129.52H160.728ZM179.568 140.5H180.918V126.1H179.568V140.5ZM169.263 128.275V129.505H174.963V129.55C174.273 132.19 171.708 135.13 168.393 136.81L169.188 137.935C170.853 137.02 172.428 135.805 173.688 134.35L177.108 137.695L177.933 136.645L174.468 133.375C175.548 131.875 176.313 130.165 176.568 128.275H169.263ZM199.664 132.925L200.384 131.86L194.624 128.47C194.984 127.93 195.299 127.36 195.524 126.745L194.189 126.4C193.214 128.935 190.619 130.825 187.769 131.875L188.489 133.045C190.439 132.25 192.389 131.08 193.814 129.49L199.664 132.925ZM187.064 133.945V135.175H193.514V140.575H194.864V135.175H201.314V133.945H187.064ZM213.464 132.415H209.399C209.999 131.185 210.404 129.835 210.569 128.35H203.369V129.595H208.994V129.64C208.394 132.415 206.249 135.37 202.589 137.065L203.504 138.205C205.589 137.2 207.434 135.625 208.724 133.615H213.464V140.5H214.814V126.1H213.464V132.415ZM229.064 132.49V126.1H227.744V140.5H229.064V133.69H231.539V132.49H229.064ZM222.449 134.245C224.174 133.99 225.314 132.835 225.314 131.005C225.314 128.935 223.829 127.72 221.684 127.72C219.524 127.72 218.039 128.935 218.039 131.005C218.039 132.91 219.269 134.08 221.129 134.275V136.87C219.944 136.945 218.624 136.975 217.139 136.975L217.289 138.22C221.429 138.22 224.414 137.92 227.114 137.2L226.919 136.03C225.539 136.39 224.099 136.63 222.449 136.78V134.245ZM219.389 131.005C219.389 129.61 220.349 128.89 221.684 128.89C223.004 128.89 223.964 129.595 223.964 131.005C223.964 132.415 223.004 133.135 221.684 133.135C220.349 133.135 219.389 132.415 219.389 131.005ZM247.766 132.115H245.336V126.7H244.031V139.975H245.336V133.3H247.766V140.485H249.086V126.1H247.766V132.115ZM238.061 131.65V128.125H236.786V137.5H242.411V128.125H241.136V131.65H238.061ZM238.061 136.3V132.835H241.136V136.3H238.061ZM263.471 131.74L264.131 130.675L258.656 127.84C258.971 127.42 259.226 126.97 259.436 126.49L258.056 126.1C257.171 128.215 254.651 129.835 251.816 130.675L252.521 131.86C254.426 131.215 256.376 130.21 257.786 128.83L263.471 131.74ZM258.761 130.525H257.411V132.895H250.961V134.125H265.211V132.895H258.761V130.525ZM258.086 135.265C255.086 135.265 253.331 136.225 253.331 137.92C253.331 139.615 255.086 140.575 258.086 140.575C261.086 140.575 262.841 139.615 262.841 137.92C262.841 136.225 261.086 135.265 258.086 135.265ZM261.026 138.82C260.486 139.15 259.511 139.375 258.086 139.375C256.661 139.375 255.671 139.165 255.146 138.82C254.861 138.595 254.711 138.28 254.711 137.92C254.711 137.56 254.846 137.245 255.146 137.02C255.671 136.675 256.661 136.465 258.086 136.465C259.511 136.465 260.486 136.69 261.026 137.02C261.326 137.245 261.461 137.56 261.461 137.92C261.461 138.28 261.326 138.595 261.026 138.82ZM51.775 161.925V163.53H47.95V164.7H51.775V166.5H53.125V158.1H51.775V160.755H48.43C48.565 160.335 48.67 159.9 48.73 159.45H41.665V160.65H47.065V160.695C46.39 162.54 44.32 164.505 40.9 165.42L41.62 166.605C44.23 165.84 46.69 164.25 47.935 161.925H51.775ZM48.445 166.74C45.445 166.74 43.69 167.835 43.69 169.65C43.69 171.48 45.445 172.575 48.445 172.575C51.445 172.575 53.2 171.48 53.2 169.65C53.2 167.835 51.445 166.74 48.445 166.74ZM51.37 170.7C50.83 171.12 49.855 171.375 48.445 171.375C47.035 171.375 46.045 171.12 45.52 170.7C45.22 170.43 45.07 170.085 45.07 169.65C45.07 169.23 45.22 168.87 45.52 168.615C46.06 168.21 47.035 167.94 48.445 167.94C49.855 167.94 50.83 168.21 51.37 168.615C51.67 168.87 51.82 169.23 51.82 169.65C51.82 170.085 51.67 170.43 51.37 170.7ZM66.775 160.605H63.475V161.775H66.775V163.305H63.475V164.475H66.775V167.175H68.125V158.1H66.775V160.605ZM56.635 166.8C59.74 166.8 62.35 166.68 64.525 166.185L64.39 165.075C62.29 165.54 59.755 165.63 57.97 165.63V163.5H62.71V159.375H56.425V160.56H61.42V162.375H56.635V166.8ZM66.745 169.155V172.53H68.125V167.925H58.675V169.155H66.745ZM76.7465 170.175C79.3415 168.045 81.9665 165.03 81.9665 162.825C81.9665 160.59 80.3165 159.51 78.3515 159.51C77.1965 159.51 75.8915 159.855 75.0665 160.545V161.955C76.2665 160.965 77.2415 160.8 78.1565 160.8C79.3865 160.8 80.4665 161.595 80.4665 162.915C80.4665 165.12 77.5565 168 74.6915 170.4V171.39H82.4465V170.175H76.7465ZM87.8615 171.54C90.4415 171.54 92.0165 169.155 92.0165 165.375C92.0165 162.165 90.9815 159.51 88.0115 159.51C85.3715 159.51 83.9015 162 83.9015 165.705C83.9015 169.32 85.1315 171.54 87.8615 171.54ZM87.9665 170.34C86.2265 170.34 85.3415 168.48 85.3415 165.63C85.3415 162.975 86.0915 160.74 87.8465 160.74C89.6465 160.74 90.5765 162.93 90.5765 165.45C90.5765 168.27 89.8115 170.34 87.9665 170.34ZM105.771 168.9V158.1H104.421V160.455H99.4715V161.625H104.421V163.08H99.4715V164.25H104.421V168.9H105.771ZM102.141 164.985C99.9365 165.45 97.2065 165.615 95.8115 165.615V159.675H94.4465V166.875C97.3265 166.875 100.176 166.665 102.306 166.185L102.141 164.985ZM98.1215 167.775H96.7715V172.275H106.371V171.06H98.1215V167.775ZM124.668 172.5V158.1H123.318V172.5H124.668ZM116.643 169.83C118.968 169.83 120.468 168.015 120.468 164.805C120.468 161.61 118.968 159.795 116.643 159.795C114.318 159.795 112.818 161.61 112.818 164.805C112.818 168.015 114.318 169.83 116.643 169.83ZM116.643 168.57C115.113 168.57 114.198 167.28 114.198 164.805C114.198 162.345 115.113 161.055 116.643 161.055C118.173 161.055 119.088 162.345 119.088 164.805C119.088 167.28 118.173 168.57 116.643 168.57ZM138.918 158.1H137.598V166.5H138.918V163.44H141.393V162.24H138.918V158.1ZM135.993 164.85L131.838 161.88C132.213 160.965 132.483 159.975 132.603 158.895L131.193 158.76C130.908 161.805 129.228 164.22 126.993 165.69L127.968 166.74C129.303 165.78 130.458 164.535 131.283 163.035L135.243 165.885L135.993 164.85ZM134.313 166.74C131.313 166.74 129.558 167.835 129.558 169.65C129.558 171.48 131.313 172.575 134.313 172.575C137.313 172.575 139.068 171.48 139.068 169.65C139.068 167.835 137.313 166.74 134.313 166.74ZM137.238 170.7C136.698 171.12 135.723 171.375 134.313 171.375C132.903 171.375 131.913 171.12 131.388 170.7C131.088 170.43 130.938 170.085 130.938 169.65C130.938 169.23 131.088 168.87 131.388 168.615C131.928 168.21 132.903 167.94 134.313 167.94C135.723 167.94 136.698 168.21 137.238 168.615C137.538 168.87 137.688 169.23 137.688 169.65C137.688 170.085 137.538 170.43 137.238 170.7ZM154.668 172.5V158.1H153.348V172.5H154.668ZM147.168 166.605C149.388 166.605 150.918 165.315 150.918 163.155C150.918 161.01 149.388 159.72 147.168 159.72C144.948 159.72 143.418 161.01 143.418 163.155C143.418 165.315 144.948 166.605 147.168 166.605ZM147.168 165.42C145.773 165.42 144.768 164.64 144.768 163.155C144.768 161.685 145.773 160.905 147.168 160.905C148.563 160.905 149.568 161.685 149.568 163.155C149.568 164.64 148.563 165.42 147.168 165.42ZM142.143 170.22C146.553 170.22 149.853 169.935 152.718 169.29L152.538 168.12C149.688 168.765 146.493 168.975 141.993 168.975L142.143 170.22ZM172.214 163.965H169.214V165.165H172.214V172.5H173.564V158.1H172.214V163.965ZM161.339 160.125V161.355H169.679V160.125H161.339ZM168.254 162.495L166.889 162.405L166.499 168.18C165.809 168.24 165.089 168.285 164.354 168.33L163.964 162.405L162.599 162.495L163.064 168.39C162.374 168.405 161.699 168.42 161.039 168.42L161.189 169.65C164.444 169.65 168.209 169.305 170.789 168.75L170.684 167.565C169.829 167.76 168.854 167.91 167.804 168.03L168.254 162.495ZM177.764 158.55V159.75H188.114V158.55H177.764ZM188.054 163.2V162.03H185.864L186.134 160.38L184.769 160.29L184.529 162.03H181.319L181.079 160.29L179.714 160.38L179.984 162.03H177.839V163.2H188.054ZM175.814 165.585H190.064V164.37H175.814V165.585ZM187.409 170.07V166.725H178.154V167.85H186.059V168.99H178.439V172.425H188.309V171.285H179.774V170.07H187.409ZM206.516 164.115H204.161V158.7H202.856V171.975H204.161V165.3H206.516V172.485H207.836V158.1H206.516V164.115ZM201.161 169.575V160.275H195.536V169.575H201.161ZM199.871 161.49V168.36H196.826V161.49H199.871ZM221.111 166.47C218.456 167.445 214.676 168.015 212.516 168.015V159.975H211.136V169.275C214.691 169.275 218.546 168.66 221.111 167.64V172.5H222.461V158.1H221.111V166.47ZM236.111 163.89H232.886V165.09H236.111V172.5H237.461V158.1H236.111V163.89ZM225.776 160.275V161.505H231.236V161.55C230.576 164.175 228.146 167.115 224.936 168.825L225.746 169.935C227.336 169.005 228.836 167.805 230.051 166.35L233.276 169.68L234.101 168.645L230.801 165.345C231.836 163.86 232.556 162.165 232.826 160.275H225.776ZM252.461 172.5V158.1H251.141V172.5H252.461ZM244.961 166.605C247.181 166.605 248.711 165.315 248.711 163.155C248.711 161.01 247.181 159.72 244.961 159.72C242.741 159.72 241.211 161.01 241.211 163.155C241.211 165.315 242.741 166.605 244.961 166.605ZM244.961 165.42C243.566 165.42 242.561 164.64 242.561 163.155C242.561 161.685 243.566 160.905 244.961 160.905C246.356 160.905 247.361 161.685 247.361 163.155C247.361 164.64 246.356 165.42 244.961 165.42ZM239.936 170.22C244.346 170.22 247.646 169.935 250.511 169.29L250.331 168.12C247.481 168.765 244.286 168.975 239.786 168.975L239.936 170.22ZM271.207 164.925L271.927 163.86L266.167 160.47C266.527 159.93 266.842 159.36 267.067 158.745L265.732 158.4C264.757 160.935 262.162 162.825 259.312 163.875L260.032 165.045C261.982 164.25 263.932 163.08 265.357 161.49L271.207 164.925ZM258.607 165.945V167.175H262.612V172.575H263.917V167.175H267.562V172.575H268.867V167.175H272.857V165.945H258.607ZM285.412 172.485H286.732V158.1H285.412V172.485ZM279.607 164.415C280.027 163.215 280.282 161.895 280.357 160.44H274.597V161.67H278.932V161.715C278.827 162.525 278.647 163.32 278.362 164.085L274.162 164.235L274.207 165.48L277.837 165.27C277.027 166.8 275.752 168.15 273.907 169.155L274.867 170.25C276.757 169.08 278.182 167.535 279.112 165.615H281.977V171.975H283.282V158.7H281.977V164.415H279.607ZM300.007 164.115H296.977C296.782 161.34 295.372 159.795 293.257 159.795C290.977 159.795 289.507 161.595 289.507 164.805C289.507 168.03 290.977 169.83 293.257 169.83C295.417 169.83 296.842 168.225 296.992 165.315H300.007V172.5H301.357V158.1H300.007V164.115ZM293.257 168.57C291.772 168.57 290.872 167.295 290.872 164.805C290.872 162.33 291.772 161.055 293.257 161.055C294.742 161.055 295.642 162.33 295.642 164.805C295.642 167.295 294.742 168.57 293.257 168.57ZM315.607 164.49V158.1H314.287V172.5H315.607V165.69H318.082V164.49H315.607ZM308.992 166.245C310.717 165.99 311.857 164.835 311.857 163.005C311.857 160.935 310.372 159.72 308.227 159.72C306.067 159.72 304.582 160.935 304.582 163.005C304.582 164.91 305.812 166.08 307.672 166.275V168.87C306.487 168.945 305.167 168.975 303.682 168.975L303.832 170.22C307.972 170.22 310.957 169.92 313.657 169.2L313.462 168.03C312.082 168.39 310.642 168.63 308.992 168.78V166.245ZM305.932 163.005C305.932 161.61 306.892 160.89 308.227 160.89C309.547 160.89 310.507 161.595 310.507 163.005C310.507 164.415 309.547 165.135 308.227 165.135C306.892 165.135 305.932 164.415 305.932 163.005ZM51.775 195.965H48.775V197.165H51.775V204.5H53.125V190.1H51.775V195.965ZM40.9 192.125V193.355H49.24V192.125H40.9ZM47.815 194.495L46.45 194.405L46.06 200.18C45.37 200.24 44.65 200.285 43.915 200.33L43.525 194.405L42.16 194.495L42.625 200.39C41.935 200.405 41.26 200.42 40.6 200.42L40.75 201.65C44.005 201.65 47.77 201.305 50.35 200.75L50.245 199.565C49.39 199.76 48.415 199.91 47.365 200.03L47.815 194.495ZM57.325 190.55V191.75H67.675V190.55H57.325ZM67.615 195.2V194.03H65.425L65.695 192.38L64.33 192.29L64.09 194.03H60.88L60.64 192.29L59.275 192.38L59.545 194.03H57.4V195.2H67.615ZM55.375 197.585H69.625V196.37H55.375V197.585ZM66.97 202.07V198.725H57.715V199.85H65.62V200.99H58V204.425H67.87V203.285H59.335V202.07H66.97ZM82.975 196.925L83.695 195.86L77.935 192.47C78.295 191.93 78.61 191.36 78.835 190.745L77.5 190.4C76.525 192.935 73.93 194.825 71.08 195.875L71.8 197.045C73.75 196.25 75.7 195.08 77.125 193.49L82.975 196.925ZM70.375 197.945V199.175H74.38V204.575H75.685V199.175H79.33V204.575H80.635V199.175H84.625V197.945H70.375ZM87.07 199.295C88.735 198.89 90.715 198.14 92.485 197.06L97.93 199.22L98.635 198.17L93.625 196.295C95.26 195.095 96.58 193.565 97.03 191.75H87.79V192.995H93.625L95.125 193.01V193.055C94 195.275 90.205 197.255 86.365 198.065L87.07 199.295ZM85.375 202.79H99.625V201.545H85.375V202.79ZM113.125 204.5V190.1H111.805V204.5H113.125ZM105.625 198.605C107.845 198.605 109.375 197.315 109.375 195.155C109.375 193.01 107.845 191.72 105.625 191.72C103.405 191.72 101.875 193.01 101.875 195.155C101.875 197.315 103.405 198.605 105.625 198.605ZM105.625 197.42C104.23 197.42 103.225 196.64 103.225 195.155C103.225 193.685 104.23 192.905 105.625 192.905C107.02 192.905 108.025 193.685 108.025 195.155C108.025 196.64 107.02 197.42 105.625 197.42ZM100.6 202.22C105.01 202.22 108.31 201.935 111.175 201.29L110.995 200.12C108.145 200.765 104.95 200.975 100.45 200.975L100.6 202.22ZM121.071 191.75V192.95H131.721V191.75H121.071ZM131.646 198.575V197.39H129.291L129.711 193.97L128.346 193.85L128.001 197.39H124.761L124.416 193.85L123.051 193.97L123.471 197.39H121.161V198.575H131.646ZM119.271 202.79H133.521V201.545H119.271V202.79ZM145.671 199.385C143.091 200.15 139.791 200.57 136.881 200.57V197.33H142.506V192.125H135.321V193.355H141.186V196.145H135.531V201.785C139.671 201.785 143.151 201.32 145.671 200.54V204.5H147.021V190.1H145.671V199.385ZM162.021 204.5V190.1H160.671V204.5H162.021ZM157.521 201.575V192.125H150.546V201.575H157.521ZM151.881 193.355H156.186V200.345H151.881V193.355ZM175.671 193.715H172.386C172.101 192.035 170.706 191.12 168.816 191.12C166.671 191.12 165.171 192.29 165.171 194.405C165.171 196.535 166.671 197.705 168.816 197.705C170.766 197.705 172.191 196.715 172.416 194.915H175.671V198.125H177.021V190.1H175.671V193.715ZM168.816 196.535C167.496 196.535 166.506 195.875 166.506 194.405C166.506 192.95 167.496 192.29 168.816 192.29C170.121 192.29 171.111 192.935 171.111 194.405C171.111 195.875 170.121 196.535 168.816 196.535ZM177.021 204.35V198.875H167.946V204.35H177.021ZM175.701 200.045V203.165H169.266V200.045H175.701ZM194.973 196.115H192.543V190.7H191.238V199.445C190.548 199.655 189.783 199.82 188.883 199.955L189.123 194.48L187.758 194.405L187.608 200.105C187.113 200.15 186.588 200.18 186.018 200.21L185.868 194.405L184.503 194.48L184.758 200.255C184.278 200.27 183.783 200.27 183.243 200.27L183.393 201.5C187.203 201.5 189.513 201.17 191.238 200.585V203.975H192.543V197.3H194.973V204.485H196.293V190.1H194.973V196.115ZM183.483 192.125V193.355H190.128V192.125H183.483ZM209.568 204.5H210.918V190.1H209.568V204.5ZM205.638 193.505V193.55C205.458 194.345 205.203 195.095 204.873 195.8L198.993 196.055L199.053 197.315L204.168 197C202.998 198.725 201.213 200.105 198.693 201.065L199.503 202.25C203.778 200.36 206.613 197.315 207.168 192.275H199.638V193.505H205.638ZM224.568 190.1V198.5H225.918V190.1H224.568ZM222.858 197.03L219.483 195.215C220.518 194.135 221.253 192.845 221.508 191.375H214.293V192.575H219.858V192.62C219.093 194.42 216.828 196.325 213.393 197.315L214.053 198.44C215.718 197.9 217.293 197.105 218.553 196.07L222.153 198.035L222.858 197.03ZM221.238 198.74C218.238 198.74 216.483 199.835 216.483 201.65C216.483 203.48 218.238 204.575 221.238 204.575C224.238 204.575 225.993 203.48 225.993 201.65C225.993 199.835 224.238 198.74 221.238 198.74ZM224.163 202.7C223.623 203.12 222.648 203.375 221.238 203.375C219.828 203.375 218.838 203.12 218.313 202.7C218.013 202.43 217.863 202.085 217.863 201.65C217.863 201.23 218.013 200.87 218.313 200.615C218.853 200.21 219.828 199.94 221.238 199.94C222.648 199.94 223.623 200.21 224.163 200.615C224.463 200.87 224.613 201.23 224.613 201.65C224.613 202.085 224.463 202.43 224.163 202.7ZM52.975 228.925L53.695 227.86L47.935 224.47C48.295 223.93 48.61 223.36 48.835 222.745L47.5 222.4C46.525 224.935 43.93 226.825 41.08 227.875L41.8 229.045C43.75 228.25 45.7 227.08 47.125 225.49L52.975 228.925ZM40.375 229.945V231.175H44.38V236.575H45.685V231.175H49.33V236.575H50.635V231.175H54.625V229.945H40.375ZM57.07 231.295C58.735 230.89 60.715 230.14 62.485 229.06L67.93 231.22L68.635 230.17L63.625 228.295C65.26 227.095 66.58 225.565 67.03 223.75H57.79V224.995H63.625L65.125 225.01V225.055C64 227.275 60.205 229.255 56.365 230.065L57.07 231.295ZM55.375 234.79H69.625V233.545H55.375V234.79ZM78.175 230.455C80.905 230.26 82.525 228.865 82.525 226.885C82.525 224.755 80.635 223.3 77.5 223.3C74.38 223.3 72.475 224.755 72.475 226.885C72.475 228.865 74.11 230.26 76.825 230.455V233.545H70.375V234.79H84.625V233.545H78.175V230.455ZM74.335 228.25C74.02 227.86 73.855 227.41 73.855 226.885C73.855 226.375 74.005 225.91 74.335 225.535C74.89 224.875 75.985 224.5 77.5 224.5C79.015 224.5 80.08 224.89 80.665 225.535C80.995 225.91 81.145 226.375 81.145 226.885C81.145 227.41 80.98 227.86 80.665 228.25C80.11 228.91 79.015 229.285 77.5 229.285C75.985 229.285 74.89 228.91 74.335 228.25ZM96.775 227.14H91.525V228.34H96.775V236.5H98.125V222.1H96.775V227.14ZM88.165 223.975H86.8V233.2C89.935 233.2 92.95 232.945 95.185 232.375L95.02 231.19C92.65 231.745 89.815 231.94 88.165 231.94V223.975ZM113.125 236.5V222.1H111.805V236.5H113.125ZM105.625 230.605C107.845 230.605 109.375 229.315 109.375 227.155C109.375 225.01 107.845 223.72 105.625 223.72C103.405 223.72 101.875 225.01 101.875 227.155C101.875 229.315 103.405 230.605 105.625 230.605ZM105.625 229.42C104.23 229.42 103.225 228.64 103.225 227.155C103.225 225.685 104.23 224.905 105.625 224.905C107.02 224.905 108.025 225.685 108.025 227.155C108.025 228.64 107.02 229.42 105.625 229.42ZM100.6 234.22C105.01 234.22 108.31 233.935 111.175 233.29L110.995 232.12C108.145 232.765 104.95 232.975 100.45 232.975L100.6 234.22ZM131.271 222.1H129.951V227.185C127.731 227.935 124.026 228.37 121.701 228.37L121.671 224.59H127.431V223.375H120.321V229.6C123.996 229.6 127.806 229.105 129.951 228.31V230.5H131.271V227.29H133.746V226.09H131.271V222.1ZM126.666 230.74C123.666 230.74 121.911 231.835 121.911 233.65C121.911 235.48 123.666 236.575 126.666 236.575C129.666 236.575 131.421 235.48 131.421 233.65C131.421 231.835 129.666 230.74 126.666 230.74ZM129.591 234.7C129.051 235.12 128.076 235.375 126.666 235.375C125.256 235.375 124.266 235.12 123.741 234.7C123.441 234.43 123.291 234.085 123.291 233.65C123.291 233.23 123.441 232.87 123.741 232.615C124.281 232.21 125.256 231.94 126.666 231.94C128.076 231.94 129.051 232.21 129.591 232.615C129.891 232.87 130.041 233.23 130.041 233.65C130.041 234.085 129.891 234.43 129.591 234.7ZM146.271 222.1H144.951V227.185C142.731 227.935 139.026 228.37 136.701 228.37L136.671 224.59H142.431V223.375H135.321V229.6C138.996 229.6 142.806 229.105 144.951 228.31V230.5H146.271V227.29H148.746V226.09H146.271V222.1ZM141.666 230.74C138.666 230.74 136.911 231.835 136.911 233.65C136.911 235.48 138.666 236.575 141.666 236.575C144.666 236.575 146.421 235.48 146.421 233.65C146.421 231.835 144.666 230.74 141.666 230.74ZM144.591 234.7C144.051 235.12 143.076 235.375 141.666 235.375C140.256 235.375 139.266 235.12 138.741 234.7C138.441 234.43 138.291 234.085 138.291 233.65C138.291 233.23 138.441 232.87 138.741 232.615C139.281 232.21 140.256 231.94 141.666 231.94C143.076 231.94 144.051 232.21 144.591 232.615C144.891 232.87 145.041 233.23 145.041 233.65C145.041 234.085 144.891 234.43 144.591 234.7ZM161.271 222.1H159.951V232.9H161.271V229.015H163.746V227.815H161.271V222.1ZM151.146 222.7V223.825H156.876V222.7H151.146ZM149.421 225.16V226.33H158.271V225.16H149.421ZM157.296 229.63C157.296 228.25 156.006 227.305 153.996 227.305C152.001 227.305 150.711 228.25 150.711 229.63C150.711 231.01 152.001 231.955 153.996 231.955C156.006 231.955 157.296 231.01 157.296 229.63ZM152.001 229.63C152.001 228.865 152.736 228.385 153.996 228.385C155.271 228.385 156.006 228.865 156.006 229.63C156.006 230.395 155.271 230.875 153.996 230.875C152.736 230.875 152.001 230.395 152.001 229.63ZM152.421 232.525V236.275H161.871V235.06H153.756V232.525H152.421ZM180.168 222.1H178.848V232.9H180.168V229.015H182.643V227.815H180.168V222.1ZM170.043 222.7V223.825H175.773V222.7H170.043ZM168.318 225.16V226.33H177.168V225.16H168.318ZM176.193 229.63C176.193 228.25 174.903 227.305 172.893 227.305C170.898 227.305 169.608 228.25 169.608 229.63C169.608 231.01 170.898 231.955 172.893 231.955C174.903 231.955 176.193 231.01 176.193 229.63ZM170.898 229.63C170.898 228.865 171.633 228.385 172.893 228.385C174.168 228.385 174.903 228.865 174.903 229.63C174.903 230.395 174.168 230.875 172.893 230.875C171.633 230.875 170.898 230.395 170.898 229.63ZM171.318 232.525V236.275H180.768V235.06H172.653V232.525H171.318ZM194.568 226.915V229.525H195.918V222.1H194.568V225.715H190.698C191.103 225.01 191.388 224.23 191.508 223.375H184.458V224.575H189.828V224.62C189.123 226.285 187.068 228.055 183.693 228.82L184.368 230.005C186.453 229.48 188.463 228.43 189.828 226.915H194.568ZM188.163 233.905H195.918V230.275H186.438V231.415H194.568V232.78H186.813V236.5H196.518V235.36H188.163V233.905ZM205.293 227.635C208.278 227.635 210.093 226.735 210.093 225.085C210.093 223.45 208.278 222.55 205.293 222.55C202.308 222.55 200.493 223.45 200.493 225.085C200.493 226.735 202.308 227.635 205.293 227.635ZM205.293 226.435C203.853 226.435 202.788 226.225 202.263 225.85C201.993 225.655 201.873 225.4 201.873 225.085C201.873 224.785 201.993 224.515 202.263 224.335C202.788 223.975 203.853 223.75 205.293 223.75C206.733 223.75 207.783 223.975 208.323 224.335C208.593 224.515 208.713 224.785 208.713 225.085C208.713 225.4 208.593 225.655 208.323 225.85C207.798 226.225 206.733 226.435 205.293 226.435ZM212.418 230.005V228.775H198.168V230.005H212.418ZM209.793 236.35V231.475H200.793V236.35H209.793ZM202.098 232.615H208.473V235.18H202.098V232.615ZM220.293 227.185C223.278 227.185 225.093 226.345 225.093 224.755C225.093 223.165 223.278 222.325 220.293 222.325C217.308 222.325 215.493 223.165 215.493 224.755C215.493 226.345 217.308 227.185 220.293 227.185ZM220.293 225.985C218.853 225.985 217.788 225.79 217.263 225.46C216.993 225.28 216.873 225.04 216.873 224.755C216.873 224.47 216.978 224.23 217.263 224.05C217.788 223.735 218.853 223.525 220.293 223.525C221.733 223.525 222.783 223.735 223.323 224.05C223.608 224.23 223.713 224.47 223.713 224.755C223.713 225.04 223.593 225.28 223.323 225.46C222.798 225.79 221.733 225.985 220.293 225.985ZM227.418 229.36V228.145H213.168V229.36H227.418ZM225.663 236.425V235.285H217.128V234.01H224.763V230.575H215.523V231.7H223.413V232.915H215.793V236.425H225.663ZM244.064 227.14V222.1H242.744V230.875H244.064V228.34H246.539V227.14H244.064ZM233.939 222.475V223.57H239.669V222.475H233.939ZM232.214 224.71V225.85H241.064V224.71H232.214ZM240.089 228.76C240.089 227.5 238.814 226.675 236.789 226.675C234.779 226.675 233.504 227.5 233.504 228.76C233.504 230.005 234.779 230.83 236.789 230.83C238.814 230.83 240.089 230.005 240.089 228.76ZM234.764 228.76C234.764 228.115 235.514 227.71 236.789 227.71C238.079 227.71 238.829 228.115 238.829 228.76C238.829 229.39 238.079 229.81 236.789 229.81C235.514 229.81 234.764 229.39 234.764 228.76ZM244.064 236.35V231.625H235.064V236.35H244.064ZM242.759 232.795V235.18H236.369V232.795H242.759ZM258.869 236.485H260.189V222.1H258.869V236.485ZM254.039 228.34C254.249 227.125 254.384 225.805 254.444 224.365H251.459V225.595H253.004V225.64C252.854 228.745 252.119 231.595 250.259 234.01L251.504 234.775C252.569 233.275 253.319 231.565 253.784 229.54H255.734V235.975H257.039V222.7H255.734V228.34H254.039ZM247.379 225.595H249.464V225.64C249.329 227.935 248.414 230.44 246.764 232.255L247.904 233.065C249.659 230.875 250.604 228.085 250.859 224.365H247.379V225.595ZM274.064 227.065V222.1H272.744V230.35H274.064V228.265H276.539V227.065H274.064ZM263.939 222.4V223.495H269.669V222.4H263.939ZM262.214 224.605V225.745H271.064V224.605H262.214ZM270.089 228.625C270.089 227.38 268.814 226.57 266.789 226.57C264.779 226.57 263.504 227.38 263.504 228.625C263.504 229.87 264.779 230.68 266.789 230.68C268.814 230.68 270.089 229.87 270.089 228.625ZM264.764 228.625C264.764 227.995 265.514 227.59 266.789 227.59C268.079 227.59 268.829 227.995 268.829 228.625C268.829 229.255 268.079 229.66 266.789 229.66C265.514 229.66 264.764 229.255 264.764 228.625ZM266.399 232.63V231.325H265.064V236.425H274.064V231.175H272.729V232.63H266.399ZM266.399 235.24V233.74H272.729V235.24H266.399ZM288.464 230.47C285.809 231.445 282.029 232.015 279.869 232.015V223.975H278.489V233.275C282.044 233.275 285.899 232.66 288.464 231.64V236.5H289.814V222.1H288.464V230.47ZM304.064 228.49V222.1H302.744V230.935C300.404 231.73 296.879 232.18 294.569 232.18L294.539 225.355H300.299V224.125H293.189V233.425C296.849 233.425 300.479 232.945 302.744 232.105V236.5H304.064V229.69H306.539V228.49H304.064ZM309.689 235C310.334 235 310.889 234.46 310.889 233.815C310.889 233.155 310.334 232.6 309.689 232.6C309.029 232.6 308.489 233.155 308.489 233.815C308.489 234.46 309.029 235 309.689 235Z" fill="black"/>
<path d="M170.982 602.1V612.9H172.332V602.1H170.982ZM169.257 609.57L164.952 606.33C165.342 605.34 165.612 604.275 165.747 603.12L164.322 603.015C164.052 606.225 162.282 608.85 160.032 610.365L161.022 611.415C162.387 610.41 163.557 609.09 164.412 607.5L168.492 610.62L169.257 609.57ZM164.682 611.475H163.332V616.275H172.932V615.045H164.682V611.475ZM186.582 602.1H185.262V609.675H186.582V607.215H189.057V606.015H186.582V602.1ZM181.032 603.075V605.205H176.832V603.075H175.557V609.375H182.307V603.075H181.032ZM176.832 608.265V606.315H181.032V608.265H176.832ZM186.582 613.965V610.425H177.162V611.565H185.232V612.87H177.537V616.5H187.182V615.36H178.872V613.965H186.582ZM206.079 608.925L206.799 607.86L201.039 604.47C201.399 603.93 201.714 603.36 201.939 602.745L200.604 602.4C199.629 604.935 197.034 606.825 194.184 607.875L194.904 609.045C196.854 608.25 198.804 607.08 200.229 605.49L206.079 608.925ZM193.479 609.945V611.175H199.929V616.575H201.279V611.175H207.729V609.945H193.479ZM221.229 612.9V602.1H219.879V605.565H215.754V606.765H219.879V612.9H221.229ZM217.779 609.87L213.399 606.63C213.804 605.565 214.089 604.395 214.209 603.12L212.829 603.015C212.529 606.315 211.044 608.82 208.779 610.56L209.769 611.565C211.044 610.53 212.109 609.285 212.889 607.77L217.074 610.875L217.779 609.87ZM213.579 611.475H212.229V616.275H221.829V615.045H213.579V611.475ZM234.879 605.64H231.594C231.309 603.96 229.914 603.045 228.024 603.045C225.879 603.045 224.379 604.2 224.379 606.3C224.379 608.4 225.879 609.555 228.024 609.555C229.959 609.555 231.384 608.595 231.624 606.84H234.879V609.6H236.229V602.1H234.879V605.64ZM228.024 608.385C226.704 608.385 225.714 607.74 225.714 606.3C225.714 604.86 226.704 604.215 228.024 604.215C229.329 604.215 230.319 604.845 230.319 606.285C230.319 607.74 229.329 608.385 228.024 608.385ZM228.489 612.225V610.425H227.154V616.425H236.229V610.425H234.894V612.225H228.489ZM228.489 615.225V613.365H234.894V615.225H228.489ZM255.065 610.425L255.845 609.345L249.95 605.415C250.325 604.815 250.625 604.17 250.865 603.48L249.515 603.15C248.48 606.03 245.81 608.16 242.93 609.36L243.65 610.56C245.69 609.63 247.73 608.28 249.2 606.465L255.065 610.425ZM250.175 609.45H248.825V613.545H242.375V614.79H256.625V613.545H250.175V609.45ZM269.375 602.1H268.055V610.5H269.375V607.44H271.85V606.24H269.375V602.1ZM266.45 608.85L262.295 605.88C262.67 604.965 262.94 603.975 263.06 602.895L261.65 602.76C261.365 605.805 259.685 608.22 257.45 609.69L258.425 610.74C259.76 609.78 260.915 608.535 261.74 607.035L265.7 609.885L266.45 608.85ZM264.77 610.74C261.77 610.74 260.015 611.835 260.015 613.65C260.015 615.48 261.77 616.575 264.77 616.575C267.77 616.575 269.525 615.48 269.525 613.65C269.525 611.835 267.77 610.74 264.77 610.74ZM267.695 614.7C267.155 615.12 266.18 615.375 264.77 615.375C263.36 615.375 262.37 615.12 261.845 614.7C261.545 614.43 261.395 614.085 261.395 613.65C261.395 613.23 261.545 612.87 261.845 612.615C262.385 612.21 263.36 611.94 264.77 611.94C266.18 611.94 267.155 612.21 267.695 612.615C267.995 612.87 268.145 613.23 268.145 613.65C268.145 614.085 267.995 614.43 267.695 614.7ZM283.76 607.65C283.985 606.09 284.105 604.635 284.135 602.79H274.67V604.02H282.77C282.71 605.175 282.62 606.375 282.38 607.575L283.76 607.65ZM279.5 605.325H278.15V608.52H272.375V609.75H286.625V608.52H279.5V605.325ZM279.5 610.965C276.5 610.965 274.745 612 274.745 613.77C274.745 615.54 276.5 616.575 279.5 616.575C282.5 616.575 284.255 615.54 284.255 613.77C284.255 612 282.5 610.965 279.5 610.965ZM282.425 614.745C281.9 615.135 280.925 615.375 279.5 615.375C278.075 615.375 277.1 615.135 276.575 614.745C276.275 614.505 276.125 614.175 276.125 613.77C276.125 613.365 276.26 613.035 276.575 612.795C277.1 612.405 278.075 612.165 279.5 612.165C280.925 612.165 281.9 612.405 282.425 612.795C282.74 613.035 282.875 613.365 282.875 613.77C282.875 614.175 282.725 614.505 282.425 614.745ZM300.125 612.9V602.1H298.775V612.9H300.125ZM291.95 610.305C294.125 610.305 295.625 609.075 295.625 606.855C295.625 604.65 294.125 603.42 291.95 603.42C289.775 603.42 288.275 604.65 288.275 606.855C288.275 609.075 289.775 610.305 291.95 610.305ZM291.95 609.135C290.6 609.135 289.625 608.4 289.625 606.855C289.625 605.31 290.6 604.59 291.95 604.59C293.3 604.59 294.275 605.31 294.275 606.855C294.275 608.4 293.3 609.135 291.95 609.135ZM300.725 616.275V615.045H292.475V611.475H291.125V616.275H300.725ZM312.65 602.625V604.275H306.35V602.625H305V608.1H314V602.625H312.65ZM306.35 606.93V605.46H312.65V606.93H306.35ZM302.375 610.575H309.02V613.71H310.295V610.575H316.625V609.345H302.375V610.575ZM304.955 611.775V616.275H314.495V615.045H306.215V611.775H304.955ZM329.45 606.975V605.805H321.395V603.825H329.15V602.625H320.045V606.975H329.45ZM331.625 609.36V608.145H317.375V609.36H331.625ZM329.87 616.425V615.285H321.335V614.01H328.97V610.575H319.73V611.7H327.62V612.915H320V616.425H329.87ZM345.125 616.5V602.1H343.805V616.5H345.125ZM337.625 610.605C339.845 610.605 341.375 609.315 341.375 607.155C341.375 605.01 339.845 603.72 337.625 603.72C335.405 603.72 333.875 605.01 333.875 607.155C333.875 609.315 335.405 610.605 337.625 610.605ZM337.625 609.42C336.23 609.42 335.225 608.64 335.225 607.155C335.225 605.685 336.23 604.905 337.625 604.905C339.02 604.905 340.025 605.685 340.025 607.155C340.025 608.64 339.02 609.42 337.625 609.42ZM332.6 614.22C337.01 614.22 340.31 613.935 343.175 613.29L342.995 612.12C340.145 612.765 336.95 612.975 332.45 612.975L332.6 614.22ZM111.652 635.6V636.8H122.152V635.6H111.652ZM117.577 642.425H122.077V641.24H119.752L120.157 637.82L118.792 637.7L118.462 641.24H115.312L114.982 637.7L113.617 637.82L114.022 641.24H111.727V642.425H116.227V645.545H109.777V646.79H124.027V645.545H117.577V642.425ZM137.197 643.175V641.99H128.572V639.89H136.432V638.735H128.572V636.71H136.747V635.525H127.252V643.175H137.197ZM139.027 646.79V645.545H124.777V646.79H139.027ZM141.727 634.55V635.75H152.077V634.55H141.727ZM147.577 639.2H152.017V638.03H149.827L150.097 636.38L148.732 636.29L148.492 638.03H145.282L145.042 636.29L143.677 636.38L143.947 638.03H141.802V639.2H146.227V640.52H139.777V641.735H154.027V640.52H147.577V639.2ZM151.372 646.07V642.725H142.117V643.85H150.022V644.99H142.402V648.425H152.272V647.285H143.737V646.07H151.372ZM166.177 643.385C163.597 644.15 160.297 644.57 157.387 644.57V641.33H163.012V636.125H155.827V637.355H161.692V640.145H156.037V645.785C160.177 645.785 163.657 645.32 166.177 644.54V648.5H167.527V634.1H166.177V643.385ZM177.577 642.455C180.307 642.26 181.927 640.865 181.927 638.885C181.927 636.755 180.037 635.3 176.902 635.3C173.782 635.3 171.877 636.755 171.877 638.885C171.877 640.865 173.512 642.26 176.227 642.455V645.545H169.777V646.79H184.027V645.545H177.577V642.455ZM173.737 640.25C173.422 639.86 173.257 639.41 173.257 638.885C173.257 638.375 173.407 637.91 173.737 637.535C174.292 636.875 175.387 636.5 176.902 636.5C178.417 636.5 179.482 636.89 180.067 637.535C180.397 637.91 180.547 638.375 180.547 638.885C180.547 639.41 180.382 639.86 180.067 640.25C179.512 640.91 178.417 641.285 176.902 641.285C175.387 641.285 174.292 640.91 173.737 640.25ZM200.674 634.1H199.354V645.5H200.674V640.565H203.224V639.365H200.674V634.1ZM196.669 640.445C196.984 638.735 197.089 637.07 197.089 635.225H189.949V636.44H195.769C195.754 637.52 195.634 639.095 195.334 640.355L196.669 640.445ZM198.394 641.27C196.939 641.585 195.409 641.795 193.609 641.915V638.6H192.304V641.99C191.224 642.035 190.054 642.05 188.749 642.05L188.899 643.28C192.994 643.28 195.964 643.025 198.574 642.425L198.394 641.27ZM191.824 644.225V648.35H200.974V647.135H193.174V644.225H191.824ZM215.074 643.385C212.494 644.15 209.194 644.57 206.284 644.57V641.33H211.909V636.125H204.724V637.355H210.589V640.145H204.934V645.785C209.074 645.785 212.554 645.32 215.074 644.54V648.5H216.424V634.1H215.074V643.385ZM220.264 650.465C221.764 649.415 222.619 647.42 222.619 645.785C222.619 644.6 221.974 643.985 221.224 643.985C220.474 643.985 220.009 644.54 219.934 645.17C220.609 645.23 221.254 645.77 221.254 646.625C221.254 647.75 220.744 648.935 219.499 649.895L220.264 650.465ZM239.811 643.475C240.186 641.03 240.396 638.615 240.456 635.765H230.601V637.01H239.061C238.986 639.05 238.836 641.225 238.446 643.385L239.811 643.475ZM235.551 640.1H234.201V645.545H228.576V646.79H242.826V645.545H235.551V640.1ZM255.381 637.94H252.951V634.475H251.646V642.725H252.951V639.125H255.381V642.725H256.701V634.1H255.381V637.94ZM244.476 635.75V636.935H248.766V636.98C248.286 638.825 246.756 640.865 243.801 642.05L244.611 643.175C247.581 641.855 249.981 639.35 250.356 635.75H244.476ZM255.321 644.705V648.53H256.701V643.475H247.101V644.705H255.321ZM269.598 640.76C272.673 640.76 274.548 639.605 274.548 637.73C274.548 635.855 272.673 634.7 269.598 634.7C266.523 634.7 264.648 635.855 264.648 637.73C264.648 639.605 266.523 640.76 269.598 640.76ZM266.463 636.695C267.018 636.2 268.098 635.9 269.598 635.9C271.098 635.9 272.163 636.2 272.733 636.695C273.033 636.965 273.168 637.325 273.168 637.73C273.168 638.135 273.018 638.48 272.733 638.765C272.178 639.275 271.098 639.56 269.598 639.56C268.098 639.56 267.018 639.275 266.463 638.765C266.163 638.48 266.028 638.135 266.028 637.73C266.028 637.325 266.163 636.965 266.463 636.695ZM262.473 642.17V643.4H266.478V648.575H267.783V643.4H271.428V648.575H272.733V643.4H276.723V642.17H262.473ZM290.223 641.6V634.1H288.873V641.6H290.223ZM282.048 641.555C284.208 641.555 285.723 640.4 285.723 638.3C285.723 636.2 284.208 635.045 282.048 635.045C279.888 635.045 278.373 636.2 278.373 638.3C278.373 640.4 279.888 641.555 282.048 641.555ZM282.048 640.385C280.713 640.385 279.723 639.725 279.723 638.3C279.723 636.86 280.713 636.215 282.048 636.215C283.383 636.215 284.388 636.86 284.388 638.285C284.388 639.725 283.383 640.385 282.048 640.385ZM290.223 648.425V642.425H288.888V644.225H282.483V642.425H281.148V648.425H290.223ZM282.483 645.365H288.888V647.225H282.483V645.365ZM294.063 650.465C295.563 649.415 296.418 647.42 296.418 645.785C296.418 644.6 295.773 643.985 295.023 643.985C294.273 643.985 293.808 644.54 293.733 645.17C294.408 645.23 295.053 645.77 295.053 646.625C295.053 647.75 294.543 648.935 293.298 649.895L294.063 650.465ZM306.095 634.175V635.255H312.905V634.175H306.095ZM303.575 636.095V637.22H315.425V636.095H303.575ZM310.175 641.21C312.515 641.135 313.58 640.61 313.58 639.545C313.58 638.39 312.32 637.865 309.515 637.865C306.695 637.865 305.435 638.39 305.435 639.545C305.435 640.595 306.485 641.135 308.825 641.21V642.2H302.375V643.415H316.625V642.2H310.175V641.21ZM306.755 639.545C306.755 639.365 306.845 639.245 307.04 639.14C307.505 638.975 308.39 638.885 309.515 638.885C310.64 638.885 311.51 638.975 311.975 639.14C312.17 639.245 312.26 639.365 312.26 639.545C312.26 639.71 312.17 639.83 311.975 639.935C311.51 640.115 310.64 640.19 309.515 640.19C308.39 640.19 307.505 640.115 307.04 639.935C306.845 639.83 306.755 639.71 306.755 639.545ZM309.5 644.09C306.5 644.09 304.745 644.825 304.745 646.325C304.745 647.84 306.5 648.575 309.5 648.575C312.5 648.575 314.255 647.84 314.255 646.325C314.255 644.825 312.5 644.09 309.5 644.09ZM312.455 647C311.93 647.21 310.94 647.375 309.5 647.375C308.06 647.375 307.07 647.225 306.545 647C306.26 646.85 306.125 646.61 306.125 646.325C306.125 646.055 306.245 645.815 306.545 645.665C307.07 645.44 308.06 645.29 309.5 645.29C310.94 645.29 311.93 645.455 312.455 645.665C312.755 645.815 312.875 646.055 312.875 646.325C312.875 646.61 312.755 646.85 312.455 647ZM325.175 642.5H329.225V635.375H327.875V637.79H321.125V635.375H319.775V642.5H323.825V645.545H317.375V646.79H331.625V645.545H325.175V642.5ZM327.875 638.99V641.3H321.125V638.99H327.875ZM344.375 640.49V634.1H343.055V648.5H344.375V641.69H346.85V640.49H344.375ZM337.76 642.245C339.485 641.99 340.625 640.835 340.625 639.005C340.625 636.935 339.14 635.72 336.995 635.72C334.835 635.72 333.35 636.935 333.35 639.005C333.35 640.91 334.58 642.08 336.44 642.275V644.87C335.255 644.945 333.935 644.975 332.45 644.975L332.6 646.22C336.74 646.22 339.725 645.92 342.425 645.2L342.23 644.03C340.85 644.39 339.41 644.63 337.76 644.78V642.245ZM334.7 639.005C334.7 637.61 335.66 636.89 336.995 636.89C338.315 636.89 339.275 637.595 339.275 639.005C339.275 640.415 338.315 641.135 336.995 641.135C335.66 641.135 334.7 640.415 334.7 639.005ZM172.332 674.5V666.1H170.982V669.64H167.682V670.84H170.982V674.5H172.332ZM168.897 673.03L165.687 671.2C166.662 670.12 167.367 668.845 167.622 667.375H160.677V668.575H166.002V668.62C165.267 670.405 163.137 672.31 159.807 673.345L160.482 674.44C162.087 673.885 163.572 673.09 164.787 672.07L168.192 674.02L168.897 673.03ZM167.652 674.74C164.652 674.74 162.897 675.835 162.897 677.65C162.897 679.48 164.652 680.575 167.652 680.575C170.652 680.575 172.407 679.48 172.407 677.65C172.407 675.835 170.652 674.74 167.652 674.74ZM170.577 678.7C170.037 679.12 169.062 679.375 167.652 679.375C166.242 679.375 165.252 679.12 164.727 678.7C164.427 678.43 164.277 678.085 164.277 677.65C164.277 677.23 164.427 676.87 164.727 676.615C165.267 676.21 166.242 675.94 167.652 675.94C169.062 675.94 170.037 676.21 170.577 676.615C170.877 676.87 171.027 677.23 171.027 677.65C171.027 678.085 170.877 678.43 170.577 678.7ZM186.582 666.1H185.262V676.9H186.582V672.115H189.057V670.915H186.582V666.1ZM183.657 673.615L179.487 670.345C179.862 669.355 180.132 668.275 180.252 667.12L178.842 667.015C178.572 670.24 176.877 672.835 174.657 674.38L175.647 675.43C176.982 674.41 178.122 673.105 178.947 671.53L182.892 674.635L183.657 673.615ZM177.732 675.475V680.275H187.182V679.045H179.082V675.475H177.732ZM204.879 680.5H206.229V666.1H204.879V680.5ZM198.174 667.75C197.979 671.68 196.119 674.98 193.929 676.795L195.009 677.8C196.329 676.6 197.484 675.04 198.324 673.15L202.389 677.23L203.274 676.225L198.819 671.875C199.239 670.63 199.509 669.265 199.614 667.81L198.174 667.75ZM221.154 674.875L221.949 673.795L215.994 669.7C216.384 669.055 216.714 668.365 216.954 667.615L215.619 667.3C214.569 670.315 211.884 672.55 209.034 673.81L209.769 674.995C211.779 674.02 213.804 672.61 215.259 670.765L221.154 674.875ZM208.479 678.79H222.729V677.545H208.479V678.79ZM235.284 674.575H236.604V666.1H235.284V674.575ZM233.154 674.575V666.475H231.849V669.865H230.004V671.065H231.849V674.575H233.154ZM230.424 672.715C228.864 673.03 227.064 673.12 225.714 673.12V671.245H229.344V670.135H225.714V668.605H229.734V667.45H224.379V674.275C227.079 674.275 228.939 674.17 230.574 673.825L230.424 672.715ZM236.604 680.35V675.325H227.379V680.35H236.604ZM235.284 676.495V679.18H228.684V676.495H235.284ZM250.479 672.49V666.1H249.159V680.5H250.479V673.69H252.954V672.49H250.479ZM238.869 669.52H241.674V669.565C241.494 671.935 240.369 674.455 238.254 676.345L239.379 677.2C241.584 674.95 242.844 672.175 243.099 668.29H238.869V669.52ZM246.039 669.52V669.565C245.814 672.625 244.869 675.67 242.394 678.19L243.639 679C246.099 676.27 247.239 672.805 247.509 668.29H243.789V669.52H246.039ZM264.879 680.5H266.229V666.1H264.879V680.5ZM254.574 668.275V669.505H260.274V669.55C259.584 672.19 257.019 675.13 253.704 676.81L254.499 677.935C256.164 677.02 257.739 675.805 258.999 674.35L262.419 677.695L263.244 676.645L259.779 673.375C260.859 671.875 261.624 670.165 261.879 668.275H254.574ZM283.775 671.965H280.775V673.165H283.775V680.5H285.125V666.1H283.775V671.965ZM272.9 668.125V669.355H281.24V668.125H272.9ZM279.815 670.495L278.45 670.405L278.06 676.18C277.37 676.24 276.65 676.285 275.915 676.33L275.525 670.405L274.16 670.495L274.625 676.39C273.935 676.405 273.26 676.42 272.6 676.42L272.75 677.65C276.005 677.65 279.77 677.305 282.35 676.75L282.245 675.565C281.39 675.76 280.415 675.91 279.365 676.03L279.815 670.495ZM289.325 666.55V667.75H299.675V666.55H289.325ZM299.615 671.2V670.03H297.425L297.695 668.38L296.33 668.29L296.09 670.03H292.88L292.64 668.29L291.275 668.38L291.545 670.03H289.4V671.2H299.615ZM287.375 673.585H301.625V672.37H287.375V673.585ZM298.97 678.07V674.725H289.715V675.85H297.62V676.99H290V680.425H299.87V679.285H291.335V678.07H298.97ZM314.975 672.925L315.695 671.86L309.935 668.47C310.295 667.93 310.61 667.36 310.835 666.745L309.5 666.4C308.525 668.935 305.93 670.825 303.08 671.875L303.8 673.045C305.75 672.25 307.7 671.08 309.125 669.49L314.975 672.925ZM302.375 673.945V675.175H306.38V680.575H307.685V675.175H311.33V680.575H312.635V675.175H316.625V673.945H302.375ZM319.07 675.295C320.735 674.89 322.715 674.14 324.485 673.06L329.93 675.22L330.635 674.17L325.625 672.295C327.26 671.095 328.58 669.565 329.03 667.75H319.79V668.995H325.625L327.125 669.01V669.055C326 671.275 322.205 673.255 318.365 674.065L319.07 675.295ZM317.375 678.79H331.625V677.545H317.375V678.79ZM344.375 672.49V666.1H343.055V680.5H344.375V673.69H346.85V672.49H344.375ZM339.08 669.595V669.64C338.48 672.415 336.335 675.37 332.675 677.065L333.59 678.205C337.25 676.435 340.145 672.97 340.655 668.35H333.455V669.595H339.08ZM122.686 704.49V698.1H121.366V712.5H122.686V705.69H125.161V704.49H122.686ZM114.901 699.765C114.706 703.695 112.906 706.965 110.761 708.81L111.841 709.8C113.131 708.6 114.256 707.04 115.051 705.18L118.996 709.245L119.881 708.255L115.546 703.875C115.951 702.63 116.236 701.265 116.326 699.81L114.901 699.765ZM137.686 698.1H136.366V706.5H137.686V703.59H140.161V702.39H137.686V698.1ZM134.926 705.03L131.716 703.2C132.691 702.12 133.396 700.845 133.651 699.375H126.706V700.575H132.031V700.62C131.296 702.405 129.166 704.31 125.836 705.345L126.511 706.44C128.116 705.885 129.601 705.09 130.816 704.07L134.221 706.02L134.926 705.03ZM133.081 706.74C130.081 706.74 128.326 707.835 128.326 709.65C128.326 711.48 130.081 712.575 133.081 712.575C136.081 712.575 137.836 711.48 137.836 709.65C137.836 707.835 136.081 706.74 133.081 706.74ZM136.006 710.7C135.466 711.12 134.491 711.375 133.081 711.375C131.671 711.375 130.681 711.12 130.156 710.7C129.856 710.43 129.706 710.085 129.706 709.65C129.706 709.23 129.856 708.87 130.156 708.615C130.696 708.21 131.671 707.94 133.081 707.94C134.491 707.94 135.466 708.21 136.006 708.615C136.306 708.87 136.456 709.23 136.456 709.65C136.456 710.085 136.306 710.43 136.006 710.7ZM152.086 702.93C149.431 703.875 145.591 704.415 143.491 704.415V699.3H142.111V705.675C145.606 705.675 149.521 705.09 152.086 704.1V706.125H153.436V698.1H152.086V702.93ZM153.436 712.35V706.875H144.361V712.35H153.436ZM152.116 708.045V711.165H145.681V708.045H152.116ZM168.436 712.5V698.1H167.116V712.5H168.436ZM160.936 706.605C163.156 706.605 164.686 705.315 164.686 703.155C164.686 701.01 163.156 699.72 160.936 699.72C158.716 699.72 157.186 701.01 157.186 703.155C157.186 705.315 158.716 706.605 160.936 706.605ZM160.936 705.42C159.541 705.42 158.536 704.64 158.536 703.155C158.536 701.685 159.541 700.905 160.936 700.905C162.331 700.905 163.336 701.685 163.336 703.155C163.336 704.64 162.331 705.42 160.936 705.42ZM155.911 710.22C160.321 710.22 163.621 709.935 166.486 709.29L166.306 708.12C163.456 708.765 160.261 708.975 155.761 708.975L155.911 710.22ZM186.387 704.115H183.957V698.7H182.652V711.975H183.957V705.3H186.387V712.485H187.707V698.1H186.387V704.115ZM177.837 699.78C177.732 703.77 176.442 706.77 174.582 708.795L175.692 709.695C176.727 708.51 177.597 707.07 178.212 705.36L181.062 709.245L181.977 708.39L178.647 703.89C178.977 702.66 179.172 701.295 179.217 699.825L177.837 699.78ZM197.382 706.95H202.167V705.765H193.377V703.755H201.282V699.45H191.907V700.635H199.947V702.555H192.042V706.95H196.032V709.545H189.582V710.79H203.832V709.545H197.382V706.95ZM211.707 704.085C214.692 704.085 216.507 703.065 216.507 701.31C216.507 699.57 214.692 698.55 211.707 698.55C208.722 698.55 206.907 699.57 206.907 701.31C206.907 703.065 208.722 704.085 211.707 704.085ZM208.692 700.425C209.217 700.005 210.267 699.75 211.707 699.75C213.147 699.75 214.182 700.005 214.722 700.425C215.007 700.65 215.127 700.965 215.127 701.31C215.127 701.67 214.992 701.97 214.722 702.21C214.197 702.63 213.147 702.885 211.707 702.885C210.267 702.885 209.217 702.63 208.692 702.21C208.422 701.97 208.287 701.67 208.287 701.31C208.287 700.965 208.407 700.65 208.692 700.425ZM204.582 706.425H211.227V709.71H212.502V706.425H218.832V705.195H204.582V706.425ZM207.162 707.775V712.275H216.702V711.045H208.422V707.775H207.162ZM236.229 712.5V698.1H234.879V712.5H236.229ZM224.904 710.115C228.669 708.42 231.759 704.985 232.284 700.35H224.799V701.595H230.679V701.64C230.049 704.415 227.784 707.34 224.004 708.96L224.904 710.115ZM249.909 712.5H251.229V698.1H249.909V712.5ZM241.089 699.105V700.26H246.654V699.105H241.089ZM239.304 701.31V702.45H248.169V701.31H239.304ZM244.464 707.67C246.159 707.52 247.179 706.71 247.179 705.525C247.179 704.205 245.919 703.35 243.864 703.35C241.794 703.35 240.549 704.205 240.549 705.525C240.549 706.68 241.509 707.49 243.144 707.67V709.32C241.764 709.395 240.249 709.425 238.554 709.425L238.704 710.67C243.114 710.67 246.414 710.385 249.279 709.74L249.099 708.57C247.674 708.885 246.174 709.11 244.464 709.245V707.67ZM241.839 705.51C241.839 704.805 242.589 704.385 243.864 704.385C245.139 704.385 245.889 704.805 245.889 705.51C245.889 706.215 245.139 706.635 243.864 706.635C242.589 706.635 241.839 706.215 241.839 705.51ZM265.764 703.8V702.69H257.364V701.685H265.074V698.55H255.879V699.675H263.784V700.59H256.059V703.8H265.764ZM267.729 706.005V704.82H253.479V706.005H267.729ZM265.974 712.425V711.3H257.454V710.22H265.074V707.025H255.819V708.135H263.724V709.155H256.119V712.425H265.974ZM284.375 703.14V698.1H283.055V706.875H284.375V704.34H286.85V703.14H284.375ZM274.25 698.475V699.57H279.98V698.475H274.25ZM272.525 700.71V701.85H281.375V700.71H272.525ZM280.4 704.76C280.4 703.5 279.125 702.675 277.1 702.675C275.09 702.675 273.815 703.5 273.815 704.76C273.815 706.005 275.09 706.83 277.1 706.83C279.125 706.83 280.4 706.005 280.4 704.76ZM275.075 704.76C275.075 704.115 275.825 703.71 277.1 703.71C278.39 703.71 279.14 704.115 279.14 704.76C279.14 705.39 278.39 705.81 277.1 705.81C275.825 705.81 275.075 705.39 275.075 704.76ZM284.375 712.35V707.625H275.375V712.35H284.375ZM283.07 708.795V711.18H276.68V708.795H283.07ZM299.18 712.485H300.5V698.1H299.18V712.485ZM294.35 704.34C294.56 703.125 294.695 701.805 294.755 700.365H291.77V701.595H293.315V701.64C293.165 704.745 292.43 707.595 290.57 710.01L291.815 710.775C292.88 709.275 293.63 707.565 294.095 705.54H296.045V711.975H297.35V698.7H296.045V704.34H294.35ZM287.69 701.595H289.775V701.64C289.64 703.935 288.725 706.44 287.075 708.255L288.215 709.065C289.97 706.875 290.915 704.085 291.17 700.365H287.69V701.595ZM314.375 703.065V698.1H313.055V706.35H314.375V704.265H316.85V703.065H314.375ZM304.25 698.4V699.495H309.98V698.4H304.25ZM302.525 700.605V701.745H311.375V700.605H302.525ZM310.4 704.625C310.4 703.38 309.125 702.57 307.1 702.57C305.09 702.57 303.815 703.38 303.815 704.625C303.815 705.87 305.09 706.68 307.1 706.68C309.125 706.68 310.4 705.87 310.4 704.625ZM305.075 704.625C305.075 703.995 305.825 703.59 307.1 703.59C308.39 703.59 309.14 703.995 309.14 704.625C309.14 705.255 308.39 705.66 307.1 705.66C305.825 705.66 305.075 705.255 305.075 704.625ZM306.71 708.63V707.325H305.375V712.425H314.375V707.175H313.04V708.63H306.71ZM306.71 711.24V709.74H313.04V711.24H306.71ZM328.775 706.47C326.12 707.445 322.34 708.015 320.18 708.015V699.975H318.8V709.275C322.355 709.275 326.21 708.66 328.775 707.64V712.5H330.125V698.1H328.775V706.47ZM344.375 704.49V698.1H343.055V706.935C340.715 707.73 337.19 708.18 334.88 708.18L334.85 701.355H340.61V700.125H333.5V709.425C337.16 709.425 340.79 708.945 343.055 708.105V712.5H344.375V705.69H346.85V704.49H344.375Z" fill="white"/>
<path d="M48.67 542.6C45.67 544.79 43.96 548.93 43.96 552.32C43.96 554.78 45.25 556.07 46.75 556.07C48.25 556.07 49.18 554.93 49.33 553.61C47.98 553.49 46.69 552.35 46.69 550.58C46.69 548.24 47.71 545.78 50.2 543.77L48.67 542.6ZM75.5617 554.93H69.5617V557.33H75.5617V572H78.2617V543.2H75.5617V554.93ZM53.8117 547.25V549.71H70.4917V547.25H53.8117ZM67.6417 551.99L64.9117 551.81L64.1317 563.36C62.7517 563.48 61.3117 563.57 59.8417 563.66L59.0617 551.81L56.3317 551.99L57.2617 563.78C55.8817 563.81 54.5317 563.84 53.2117 563.84L53.5117 566.3C60.0217 566.3 67.5517 565.61 72.7117 564.5L72.5017 562.13C70.7917 562.52 68.8417 562.82 66.7417 563.06L67.6417 551.99ZM86.6617 544.1V546.5H107.362V544.1H86.6617ZM107.242 553.4V551.06H102.862L103.402 547.76L100.672 547.58L100.192 551.06H93.7717L93.2917 547.58L90.5617 547.76L91.1017 551.06H86.8117V553.4H107.242ZM82.7617 558.17H111.262V555.74H82.7617V558.17ZM105.952 567.14V560.45H87.4417V562.7H103.252V564.98H88.0117V571.85H107.752V569.57H90.6817V567.14H105.952ZM136.372 555.23H131.662V544.4H129.052V570.95H131.662V557.6H136.372V571.97H139.012V543.2H136.372V555.23ZM125.662 566.15V547.55H114.412V566.15H125.662ZM123.082 549.98V563.72H116.992V549.98H123.082ZM165.562 559.94C160.252 561.89 152.692 563.03 148.372 563.03V546.95H145.612V565.55C152.722 565.55 160.432 564.32 165.562 562.28V572H168.262V543.2H165.562V559.94ZM195.562 554.78H189.112V557.18H195.562V572H198.262V543.2H195.562V554.78ZM174.892 547.55V550.01H185.812V550.1C184.492 555.35 179.632 561.23 173.212 564.65L174.832 566.87C178.012 565.01 181.012 562.61 183.442 559.7L189.892 566.36L191.542 564.29L184.942 557.69C187.012 554.72 188.452 551.33 188.992 547.55H174.892ZM205.342 556.25C208.342 554.06 210.052 549.92 210.052 546.53C210.052 544.07 208.762 542.78 207.262 542.78C205.762 542.78 204.832 543.92 204.682 545.24C206.032 545.36 207.322 546.5 207.322 548.27C207.322 550.61 206.302 553.07 203.812 555.08L205.342 556.25ZM240.273 572V543.2H237.573V572H240.273ZM224.223 566.66C228.873 566.66 231.873 563.03 231.873 556.61C231.873 550.22 228.873 546.59 224.223 546.59C219.573 546.59 216.573 550.22 216.573 556.61C216.573 563.03 219.573 566.66 224.223 566.66ZM224.223 564.14C221.163 564.14 219.333 561.56 219.333 556.61C219.333 551.69 221.163 549.11 224.223 549.11C227.283 549.11 229.113 551.69 229.113 556.61C229.113 561.56 227.283 564.14 224.223 564.14ZM267.573 543.2V564.8H270.273V543.2H267.573ZM264.123 558.14L255.513 551.66C256.293 549.68 256.833 547.55 257.103 545.24L254.253 545.03C253.713 551.45 250.173 556.7 245.673 559.73L247.653 561.83C250.383 559.82 252.723 557.18 254.433 554L262.593 560.24L264.123 558.14ZM254.973 561.95H252.273V571.55H271.473V569.09H254.973V561.95ZM298.773 555.98V543.2H296.133V572H298.773V558.38H303.723V555.98H298.773ZM288.183 550.19V550.28C286.983 555.83 282.693 561.74 275.373 565.13L277.203 567.41C284.523 563.87 290.313 556.94 291.333 547.7H276.933V550.19H288.183ZM319.023 559.91C325.263 559.91 329.073 557 329.073 552.74C329.073 548.51 325.263 545.6 319.023 545.6C312.783 545.6 308.973 548.51 308.973 552.74C308.973 557 312.783 559.91 319.023 559.91ZM312.693 550.1C313.803 548.75 315.993 548 319.023 548C322.053 548 324.183 548.78 325.353 550.1C326.013 550.82 326.313 551.75 326.313 552.77C326.313 553.82 325.983 554.72 325.353 555.47C324.243 556.82 322.053 557.57 319.023 557.57C315.993 557.57 313.803 556.82 312.693 555.47C312.063 554.72 311.733 553.82 311.733 552.77C311.733 551.75 312.033 550.82 312.693 550.1ZM325.713 560.15H323.163V566.09H314.913V560.15H312.363V566.09H304.773V568.58H333.273V566.09H325.713V560.15ZM342.993 563.45V558.02C345.093 557.36 349.383 554.96 349.383 550.55C349.383 546.2 346.473 544.4 342.423 544.4C340.623 544.4 338.103 544.91 336.573 545.6V548.09C338.133 547.31 340.353 546.83 342.243 546.83C344.553 546.83 346.263 548.03 346.263 550.61C346.263 554.36 342.183 556.07 340.293 556.73V563.45H342.993ZM341.643 571.25C342.933 571.25 344.043 570.17 344.043 568.88C344.043 567.56 342.933 566.45 341.643 566.45C340.323 566.45 339.243 567.56 339.243 568.88C339.243 570.17 340.323 571.25 341.643 571.25Z" fill="white"/>
<rect x="-64" y="495.417" width="537.04" height="43.4075" transform="rotate(-25.4072 -64 495.417)" fill="#E5E5E0"/>
<path d="M42.67 69.6C39.67 71.79 37.96 75.93 37.96 79.32C37.96 81.78 39.25 83.07 40.75 83.07C42.25 83.07 43.18 81.93 43.33 80.61C41.98 80.49 40.69 79.35 40.69 77.58C40.69 75.24 41.71 72.78 44.2 70.77L42.67 69.6ZM71.9617 83.85L73.4017 81.72L61.8817 74.94C62.6017 73.86 63.2317 72.72 63.6817 71.49L61.0117 70.8C59.0617 75.87 53.8717 79.65 48.1717 81.75L49.6117 84.09C53.5117 82.5 57.4117 80.16 60.2617 76.98L71.9617 83.85ZM46.7617 85.89V88.35H54.7717V99.15H57.3817V88.35H64.6717V99.15H67.2817V88.35H75.2617V85.89H46.7617ZM80.1517 88.59C83.4817 87.78 87.4417 86.28 90.9817 84.12L101.872 88.44L103.282 86.34L93.2617 82.59C96.5317 80.19 99.1717 77.13 100.072 73.5H81.5917V75.99H93.2617L96.2617 76.02V76.11C94.0117 80.55 86.4217 84.51 78.7417 86.13L80.1517 88.59ZM76.7617 95.58H105.262V93.09H76.7617V95.58ZM122.362 86.91C127.822 86.52 131.062 83.73 131.062 79.77C131.062 75.51 127.282 72.6 121.012 72.6C114.772 72.6 110.962 75.51 110.962 79.77C110.962 83.73 114.232 86.52 119.662 86.91V93.09H106.762V95.58H135.262V93.09H122.362V86.91ZM114.682 82.5C114.052 81.72 113.722 80.82 113.722 79.77C113.722 78.75 114.022 77.82 114.682 77.07C115.792 75.75 117.982 75 121.012 75C124.042 75 126.172 75.78 127.342 77.07C128.002 77.82 128.302 78.75 128.302 79.77C128.302 80.82 127.972 81.72 127.342 82.5C126.232 83.82 124.042 84.57 121.012 84.57C117.982 84.57 115.792 83.82 114.682 82.5ZM159.562 80.28H149.062V82.68H159.562V99H162.262V70.2H159.562V80.28ZM142.342 73.95H139.612V92.4C145.882 92.4 151.912 91.89 156.382 90.75L156.052 88.38C151.312 89.49 145.642 89.88 142.342 89.88V73.95ZM169.342 83.25C172.342 81.06 174.052 76.92 174.052 73.53C174.052 71.07 172.762 69.78 171.262 69.78C169.762 69.78 168.832 70.92 168.682 72.24C170.032 72.36 171.322 73.5 171.322 75.27C171.322 77.61 170.302 80.07 167.812 82.08L169.342 83.25ZM204.273 99V70.2H201.573V99H204.273ZM188.223 93.66C192.873 93.66 195.873 90.03 195.873 83.61C195.873 77.22 192.873 73.59 188.223 73.59C183.573 73.59 180.573 77.22 180.573 83.61C180.573 90.03 183.573 93.66 188.223 93.66ZM188.223 91.14C185.163 91.14 183.333 88.56 183.333 83.61C183.333 78.69 185.163 76.11 188.223 76.11C191.283 76.11 193.113 78.69 193.113 83.61C193.113 88.56 191.283 91.14 188.223 91.14ZM231.573 70.2V91.8H234.273V70.2H231.573ZM228.123 85.14L219.513 78.66C220.293 76.68 220.833 74.55 221.103 72.24L218.253 72.03C217.713 78.45 214.173 83.7 209.673 86.73L211.653 88.83C214.383 86.82 216.723 84.18 218.433 81L226.593 87.24L228.123 85.14ZM218.973 88.95H216.273V98.55H235.473V96.09H218.973V88.95ZM262.773 82.98V70.2H260.133V99H262.773V85.38H267.723V82.98H262.773ZM252.183 77.19V77.28C250.983 82.83 246.693 88.74 239.373 92.13L241.203 94.41C248.523 90.87 254.313 83.94 255.333 74.7H240.933V77.19H252.183ZM283.023 86.91C289.263 86.91 293.073 84 293.073 79.74C293.073 75.51 289.263 72.6 283.023 72.6C276.783 72.6 272.973 75.51 272.973 79.74C272.973 84 276.783 86.91 283.023 86.91ZM276.693 77.1C277.803 75.75 279.993 75 283.023 75C286.053 75 288.183 75.78 289.353 77.1C290.013 77.82 290.313 78.75 290.313 79.77C290.313 80.82 289.983 81.72 289.353 82.47C288.243 83.82 286.053 84.57 283.023 84.57C279.993 84.57 277.803 83.82 276.693 82.47C276.063 81.72 275.733 80.82 275.733 79.77C275.733 78.75 276.033 77.82 276.693 77.1ZM289.713 87.15H287.163V93.09H278.913V87.15H276.363V93.09H268.773V95.58H297.273V93.09H289.713V87.15ZM306.993 90.45V85.02C309.093 84.36 313.383 81.96 313.383 77.55C313.383 73.2 310.473 71.4 306.423 71.4C304.623 71.4 302.103 71.91 300.573 72.6V75.09C302.133 74.31 304.353 73.83 306.243 73.83C308.553 73.83 310.263 75.03 310.263 77.61C310.263 81.36 306.183 83.07 304.293 83.73V90.45H306.993ZM305.643 98.25C306.933 98.25 308.043 97.17 308.043 95.88C308.043 94.56 306.933 93.45 305.643 93.45C304.323 93.45 303.243 94.56 303.243 95.88C303.243 97.17 304.323 98.25 305.643 98.25Z" fill="black"/>
<defs>
<filter id="filter0_d" x="-3" y="1085" width="237" height="111" filterUnits="userSpaceOnUse" color-interpolation-filters="sRGB">
<feFlood flood-opacity="0" result="BackgroundImageFix"/>
<feColorMatrix in="SourceAlpha" type="matrix" values="0 0 0 0 0 0 0 0 0 0 0 0 0 0 0 0 0 0 127 0" result="hardAlpha"/>
<feOffset dy="4"/>
<feGaussianBlur stdDeviation="2"/>
<feComposite in2="hardAlpha" operator="out"/>
<feColorMatrix type="matrix" values="0 0 0 0 0 0 0 0 0 0 0 0 0 0 0 0 0 0 0.25 0"/>
<feBlend mode="normal" in2="BackgroundImageFix" result="effect1_dropShadow"/>
<feBlend mode="normal" in="SourceGraphic" in2="effect1_dropShadow" result="shape"/>
</filter>
<filter id="filter1_d" x="142" y="1105" width="237" height="111" filterUnits="userSpaceOnUse" color-interpolation-filters="sRGB">
<feFlood flood-opacity="0" result="BackgroundImageFix"/>
<feColorMatrix in="SourceAlpha" type="matrix" values="0 0 0 0 0 0 0 0 0 0 0 0 0 0 0 0 0 0 127 0" result="hardAlpha"/>
<feOffset dy="4"/>
<feGaussianBlur stdDeviation="2"/>
<feComposite in2="hardAlpha" operator="out"/>
<feColorMatrix type="matrix" values="0 0 0 0 0 0 0 0 0 0 0 0 0 0 0 0 0 0 0.25 0"/>
<feBlend mode="normal" in2="BackgroundImageFix" result="effect1_dropShadow"/>
<feBlend mode="normal" in="SourceGraphic" in2="effect1_dropShadow" result="shape"/>
</filter>
</defs>
</svg>
